<?xml version="1.0" encoding="UTF-8"?>
<svg xmlns="http://www.w3.org/2000/svg" width="638" height="127" viewBox="0 0 638 127" role="img" aria-label="By PerformOS black on white">
  <title>By PerformOS black on white</title>
  <rect width="638" height="127" fill="#FFFFFF"/>
  <path d="M 479.00 23.00 L 478.00 24.00 L 476.00 24.00 L 475.00 25.00 L 473.00 25.00 L 472.00 26.00 L 471.00 26.00 L 469.00 28.00 L 468.00 28.00 L 461.00 35.00 L 461.00 36.00 L 458.00 39.00 L 458.00 41.00 L 457.00 42.00 L 457.00 43.00 L 456.00 44.00 L 456.00 46.00 L 455.00 47.00 L 455.00 51.00 L 454.00 52.00 L 454.00 71.00 L 455.00 72.00 L 455.00 76.00 L 456.00 77.00 L 456.00 79.00 L 457.00 80.00 L 457.00 81.00 L 458.00 82.00 L 459.00 85.00 L 461.00 87.00 L 461.00 88.00 L 468.00 95.00 L 469.00 95.00 L 471.00 97.00 L 472.00 97.00 L 475.00 99.00 L 477.00 99.00 L 478.00 100.00 L 480.00 100.00 L 481.00 101.00 L 497.00 101.00 L 498.00 100.00 L 501.00 100.00 L 502.00 99.00 L 504.00 99.00 L 506.00 97.00 L 507.00 97.00 L 508.00 96.00 L 509.00 96.00 L 511.00 94.00 L 512.00 94.00 L 517.00 89.00 L 517.00 88.00 L 519.00 86.00 L 520.00 83.00 L 522.00 81.00 L 522.00 79.00 L 523.00 78.00 L 523.00 76.00 L 524.00 75.00 L 524.00 70.00 L 525.00 69.00 L 525.00 54.00 L 524.00 53.00 L 524.00 48.00 L 523.00 47.00 L 523.00 45.00 L 522.00 44.00 L 522.00 42.00 L 520.00 40.00 L 519.00 37.00 L 517.00 35.00 L 517.00 34.00 L 511.00 28.00 L 510.00 28.00 L 509.00 27.00 L 508.00 27.00 L 503.00 24.00 L 500.00 24.00 L 499.00 23.00 L 494.00 23.00 L 493.00 22.00 L 485.00 22.00 L 484.00 23.00 Z
  M 483.00 30.00 L 496.00 30.00 L 497.00 31.00 L 499.00 31.00 L 500.00 32.00 L 503.00 33.00 L 511.00 41.00 L 511.00 42.00 L 512.00 43.00 L 512.00 45.00 L 514.00 48.00 L 514.00 51.00 L 516.00 54.00 L 516.00 69.00 L 514.00 72.00 L 514.00 75.00 L 513.00 76.00 L 513.00 78.00 L 512.00 79.00 L 511.00 82.00 L 503.00 90.00 L 502.00 90.00 L 497.00 93.00 L 494.00 93.00 L 493.00 94.00 L 486.00 94.00 L 485.00 93.00 L 481.00 93.00 L 479.00 91.00 L 478.00 91.00 L 477.00 90.00 L 476.00 90.00 L 474.00 88.00 L 473.00 88.00 L 470.00 85.00 L 470.00 84.00 L 468.00 82.00 L 468.00 81.00 L 467.00 80.00 L 467.00 79.00 L 464.00 74.00 L 464.00 71.00 L 463.00 70.00 L 463.00 53.00 L 464.00 52.00 L 464.00 49.00 L 465.00 48.00 L 465.00 47.00 L 466.00 46.00 L 466.00 45.00 L 467.00 44.00 L 467.00 43.00 L 468.00 42.00 L 469.00 39.00 L 474.00 34.00 L 475.00 34.00 L 477.00 32.00 L 479.00 32.00 L 480.00 31.00 L 482.00 31.00 Z
  M 161.00 26.00 L 159.00 26.00 L 158.00 25.00 L 156.00 25.00 L 155.00 24.00 L 115.00 24.00 L 115.00 100.00 L 124.00 100.00 L 124.00 71.00 L 126.00 69.00 L 153.00 69.00 L 154.00 68.00 L 157.00 68.00 L 158.00 67.00 L 160.00 67.00 L 161.00 66.00 L 162.00 66.00 L 169.00 59.00 L 169.00 58.00 L 170.00 57.00 L 170.00 55.00 L 171.00 54.00 L 171.00 49.00 L 172.00 48.00 L 172.00 44.00 L 171.00 43.00 L 171.00 39.00 L 170.00 38.00 L 170.00 36.00 L 169.00 35.00 L 168.00 32.00 L 164.00 28.00 L 163.00 28.00 Z
  M 298.00 45.00 L 297.00 46.00 L 294.00 47.00 L 292.00 49.00 L 291.00 49.00 L 289.00 51.00 L 289.00 52.00 L 286.00 55.00 L 286.00 56.00 L 284.00 58.00 L 284.00 60.00 L 283.00 61.00 L 283.00 64.00 L 282.00 65.00 L 282.00 80.00 L 283.00 81.00 L 283.00 84.00 L 284.00 85.00 L 284.00 86.00 L 285.00 87.00 L 286.00 90.00 L 288.00 92.00 L 288.00 93.00 L 291.00 96.00 L 292.00 96.00 L 294.00 98.00 L 295.00 98.00 L 298.00 100.00 L 300.00 100.00 L 301.00 101.00 L 315.00 101.00 L 316.00 100.00 L 318.00 100.00 L 319.00 99.00 L 320.00 99.00 L 322.00 97.00 L 323.00 97.00 L 325.00 95.00 L 326.00 95.00 L 329.00 92.00 L 329.00 91.00 L 332.00 86.00 L 332.00 84.00 L 334.00 82.00 L 334.00 76.00 L 335.00 75.00 L 335.00 70.00 L 334.00 69.00 L 334.00 64.00 L 332.00 61.00 L 332.00 59.00 L 331.00 58.00 L 331.00 57.00 L 330.00 56.00 L 329.00 53.00 L 324.00 48.00 L 323.00 48.00 L 318.00 45.00 L 315.00 45.00 L 314.00 44.00 L 302.00 44.00 L 301.00 45.00 Z
  M 548.00 23.00 L 547.00 24.00 L 545.00 24.00 L 544.00 25.00 L 542.00 25.00 L 541.00 26.00 L 540.00 26.00 L 538.00 28.00 L 537.00 28.00 L 534.00 31.00 L 534.00 32.00 L 532.00 34.00 L 532.00 36.00 L 531.00 37.00 L 531.00 41.00 L 530.00 42.00 L 530.00 44.00 L 531.00 45.00 L 531.00 49.00 L 532.00 50.00 L 532.00 52.00 L 533.00 53.00 L 533.00 54.00 L 537.00 58.00 L 538.00 58.00 L 543.00 61.00 L 545.00 61.00 L 546.00 62.00 L 548.00 62.00 L 551.00 64.00 L 555.00 64.00 L 556.00 65.00 L 560.00 65.00 L 561.00 66.00 L 565.00 66.00 L 566.00 67.00 L 569.00 67.00 L 570.00 68.00 L 572.00 68.00 L 573.00 69.00 L 574.00 69.00 L 579.00 74.00 L 579.00 75.00 L 580.00 76.00 L 580.00 83.00 L 579.00 84.00 L 578.00 87.00 L 577.00 88.00 L 576.00 88.00 L 573.00 91.00 L 571.00 91.00 L 569.00 93.00 L 563.00 93.00 L 562.00 94.00 L 557.00 94.00 L 556.00 93.00 L 551.00 93.00 L 550.00 92.00 L 547.00 91.00 L 545.00 89.00 L 544.00 89.00 L 540.00 85.00 L 540.00 84.00 L 538.00 82.00 L 538.00 80.00 L 537.00 79.00 L 537.00 77.00 L 527.00 77.00 L 527.00 79.00 L 528.00 80.00 L 528.00 83.00 L 529.00 84.00 L 530.00 87.00 L 532.00 89.00 L 532.00 90.00 L 537.00 95.00 L 538.00 95.00 L 540.00 97.00 L 541.00 97.00 L 544.00 99.00 L 546.00 99.00 L 547.00 100.00 L 550.00 100.00 L 551.00 101.00 L 569.00 101.00 L 570.00 100.00 L 573.00 100.00 L 574.00 99.00 L 576.00 99.00 L 578.00 97.00 L 581.00 96.00 L 587.00 90.00 L 587.00 89.00 L 588.00 88.00 L 588.00 86.00 L 589.00 85.00 L 589.00 72.00 L 588.00 71.00 L 587.00 68.00 L 581.00 62.00 L 580.00 62.00 L 577.00 60.00 L 574.00 60.00 L 573.00 59.00 L 571.00 59.00 L 570.00 58.00 L 566.00 58.00 L 563.00 56.00 L 559.00 56.00 L 558.00 55.00 L 555.00 55.00 L 554.00 54.00 L 550.00 54.00 L 549.00 53.00 L 548.00 53.00 L 547.00 52.00 L 544.00 51.00 L 540.00 46.00 L 540.00 39.00 L 541.00 38.00 L 541.00 37.00 L 546.00 32.00 L 547.00 32.00 L 548.00 31.00 L 550.00 31.00 L 551.00 30.00 L 565.00 30.00 L 566.00 31.00 L 568.00 31.00 L 569.00 32.00 L 570.00 32.00 L 575.00 37.00 L 575.00 38.00 L 576.00 39.00 L 576.00 40.00 L 577.00 41.00 L 578.00 44.00 L 587.00 44.00 L 587.00 41.00 L 586.00 40.00 L 586.00 37.00 L 585.00 36.00 L 585.00 35.00 L 583.00 33.00 L 583.00 32.00 L 578.00 27.00 L 577.00 27.00 L 572.00 24.00 L 570.00 24.00 L 569.00 23.00 L 564.00 23.00 L 563.00 22.00 L 554.00 22.00 L 553.00 23.00 Z
  M 370.00 45.00 L 370.00 100.00 L 379.00 100.00 L 379.00 62.00 L 380.00 61.00 L 381.00 58.00 L 387.00 52.00 L 389.00 52.00 L 390.00 51.00 L 396.00 51.00 L 397.00 52.00 L 399.00 52.00 L 403.00 56.00 L 403.00 57.00 L 405.00 60.00 L 405.00 100.00 L 414.00 100.00 L 414.00 63.00 L 415.00 62.00 L 415.00 59.00 L 418.00 56.00 L 418.00 55.00 L 420.00 53.00 L 421.00 53.00 L 422.00 52.00 L 424.00 52.00 L 425.00 51.00 L 432.00 51.00 L 433.00 52.00 L 434.00 52.00 L 439.00 57.00 L 439.00 58.00 L 440.00 59.00 L 440.00 65.00 L 441.00 66.00 L 441.00 100.00 L 449.00 100.00 L 449.00 59.00 L 448.00 58.00 L 448.00 55.00 L 447.00 54.00 L 447.00 52.00 L 441.00 46.00 L 440.00 46.00 L 439.00 45.00 L 437.00 45.00 L 436.00 44.00 L 425.00 44.00 L 424.00 45.00 L 422.00 45.00 L 421.00 46.00 L 418.00 47.00 L 413.00 52.00 L 413.00 53.00 L 412.00 54.00 L 411.00 54.00 L 410.00 53.00 L 410.00 52.00 L 408.00 50.00 L 408.00 49.00 L 405.00 46.00 L 404.00 46.00 L 403.00 45.00 L 401.00 45.00 L 400.00 44.00 L 391.00 44.00 L 390.00 45.00 L 388.00 45.00 L 387.00 46.00 L 384.00 47.00 L 380.00 51.00 L 379.00 50.00 L 379.00 45.00 Z
  M 190.00 44.00 L 189.00 45.00 L 187.00 45.00 L 186.00 46.00 L 184.00 46.00 L 182.00 48.00 L 181.00 48.00 L 176.00 53.00 L 176.00 54.00 L 173.00 57.00 L 173.00 59.00 L 171.00 62.00 L 171.00 67.00 L 170.00 68.00 L 170.00 77.00 L 171.00 78.00 L 171.00 82.00 L 172.00 83.00 L 172.00 85.00 L 173.00 86.00 L 173.00 88.00 L 175.00 90.00 L 175.00 91.00 L 181.00 97.00 L 182.00 97.00 L 184.00 99.00 L 185.00 99.00 L 186.00 100.00 L 189.00 100.00 L 190.00 101.00 L 203.00 101.00 L 204.00 100.00 L 206.00 100.00 L 207.00 99.00 L 210.00 98.00 L 217.00 91.00 L 217.00 90.00 L 219.00 87.00 L 219.00 83.00 L 211.00 83.00 L 211.00 84.00 L 210.00 85.00 L 210.00 86.00 L 208.00 88.00 L 208.00 89.00 L 204.00 93.00 L 202.00 93.00 L 201.00 94.00 L 191.00 94.00 L 190.00 93.00 L 189.00 93.00 L 187.00 91.00 L 186.00 91.00 L 183.00 88.00 L 183.00 87.00 L 180.00 82.00 L 180.00 80.00 L 179.00 79.00 L 179.00 75.00 L 180.00 74.00 L 220.00 74.00 L 220.00 63.00 L 219.00 62.00 L 219.00 59.00 L 218.00 58.00 L 218.00 56.00 L 217.00 55.00 L 216.00 52.00 L 212.00 48.00 L 211.00 48.00 L 206.00 45.00 L 204.00 45.00 L 203.00 44.00 Z
  M 284.00 24.00 L 269.00 24.00 L 268.00 25.00 L 267.00 25.00 L 263.00 29.00 L 263.00 31.00 L 262.00 32.00 L 262.00 43.00 L 260.00 45.00 L 246.00 45.00 L 245.00 46.00 L 242.00 46.00 L 241.00 47.00 L 240.00 47.00 L 236.00 51.00 L 236.00 52.00 L 235.00 53.00 L 234.00 52.00 L 234.00 45.00 L 225.00 45.00 L 225.00 100.00 L 234.00 100.00 L 234.00 64.00 L 235.00 63.00 L 235.00 61.00 L 242.00 54.00 L 244.00 54.00 L 245.00 53.00 L 261.00 53.00 L 262.00 54.00 L 262.00 100.00 L 270.00 100.00 L 270.00 55.00 L 272.00 53.00 L 284.00 53.00 L 284.00 45.00 L 272.00 45.00 L 270.00 43.00 L 270.00 36.00 L 271.00 35.00 L 271.00 34.00 L 274.00 31.00 L 276.00 31.00 L 277.00 30.00 L 284.00 30.00 Z
  M 303.00 51.00 L 313.00 51.00 L 314.00 52.00 L 317.00 53.00 L 322.00 58.00 L 322.00 59.00 L 324.00 62.00 L 324.00 65.00 L 325.00 66.00 L 325.00 79.00 L 324.00 80.00 L 324.00 83.00 L 323.00 84.00 L 322.00 87.00 L 316.00 93.00 L 314.00 93.00 L 313.00 94.00 L 303.00 94.00 L 302.00 93.00 L 299.00 92.00 L 295.00 88.00 L 295.00 87.00 L 293.00 85.00 L 293.00 83.00 L 292.00 82.00 L 292.00 80.00 L 291.00 79.00 L 291.00 72.00 L 290.00 71.00 L 291.00 70.00 L 291.00 65.00 L 293.00 62.00 L 293.00 60.00 L 294.00 59.00 L 294.00 58.00 L 299.00 53.00 L 300.00 53.00 Z
  M 124.00 32.00 L 125.00 31.00 L 151.00 31.00 L 152.00 32.00 L 154.00 32.00 L 155.00 33.00 L 156.00 33.00 L 160.00 37.00 L 160.00 38.00 L 162.00 41.00 L 162.00 52.00 L 161.00 53.00 L 161.00 54.00 L 157.00 59.00 L 156.00 59.00 L 153.00 61.00 L 150.00 61.00 L 149.00 62.00 L 125.00 62.00 L 124.00 61.00 Z
  M 19.00 51.00 L 19.00 91.00 L 41.00 91.00 L 42.00 90.00 L 45.00 89.00 L 47.00 87.00 L 47.00 86.00 L 49.00 83.00 L 49.00 78.00 L 48.00 77.00 L 48.00 75.00 L 45.00 72.00 L 44.00 72.00 L 41.00 70.00 L 43.00 68.00 L 44.00 68.00 L 46.00 66.00 L 46.00 65.00 L 47.00 64.00 L 47.00 57.00 L 46.00 56.00 L 46.00 55.00 L 43.00 52.00 L 41.00 52.00 L 40.00 51.00 Z
  M 365.00 45.00 L 359.00 45.00 L 358.00 46.00 L 356.00 46.00 L 355.00 47.00 L 353.00 47.00 L 351.00 49.00 L 351.00 50.00 L 348.00 53.00 L 347.00 52.00 L 347.00 45.00 L 338.00 45.00 L 338.00 100.00 L 347.00 100.00 L 347.00 68.00 L 348.00 67.00 L 348.00 63.00 L 349.00 62.00 L 350.00 59.00 L 354.00 55.00 L 355.00 55.00 L 356.00 54.00 L 358.00 54.00 L 359.00 53.00 L 365.00 53.00 Z
  M 603.00 9.00 L 602.00 10.00 L 600.00 10.00 L 599.00 11.00 L 596.00 12.00 L 594.00 14.00 L 594.00 15.00 L 592.00 18.00 L 592.00 27.00 L 593.00 28.00 L 594.00 31.00 L 596.00 33.00 L 599.00 34.00 L 601.00 36.00 L 610.00 36.00 L 611.00 35.00 L 614.00 34.00 L 618.00 30.00 L 618.00 29.00 L 620.00 26.00 L 620.00 20.00 L 619.00 19.00 L 619.00 17.00 L 618.00 16.00 L 618.00 15.00 L 614.00 11.00 L 613.00 11.00 L 612.00 10.00 L 609.00 10.00 L 608.00 9.00 Z
  M 605.00 10.00 L 606.00 10.00 L 607.00 11.00 L 611.00 11.00 L 613.00 13.00 L 614.00 13.00 L 615.00 14.00 L 615.00 15.00 L 617.00 17.00 L 617.00 19.00 L 618.00 20.00 L 618.00 25.00 L 617.00 26.00 L 617.00 28.00 L 616.00 29.00 L 616.00 30.00 L 614.00 32.00 L 613.00 32.00 L 610.00 34.00 L 608.00 34.00 L 607.00 35.00 L 604.00 35.00 L 603.00 34.00 L 601.00 34.00 L 600.00 33.00 L 599.00 33.00 L 595.00 29.00 L 595.00 28.00 L 594.00 27.00 L 594.00 25.00 L 593.00 24.00 L 593.00 21.00 L 594.00 20.00 L 594.00 18.00 L 595.00 17.00 L 595.00 16.00 L 599.00 12.00 L 600.00 12.00 L 601.00 11.00 L 604.00 11.00 Z
  M 179.00 66.00 L 180.00 65.00 L 180.00 63.00 L 181.00 62.00 L 181.00 61.00 L 182.00 60.00 L 183.00 57.00 L 187.00 53.00 L 188.00 53.00 L 191.00 51.00 L 201.00 51.00 L 202.00 52.00 L 204.00 52.00 L 210.00 58.00 L 210.00 59.00 L 211.00 60.00 L 211.00 63.00 L 212.00 64.00 L 212.00 67.00 L 211.00 68.00 L 180.00 68.00 L 179.00 67.00 Z
  M 79.00 63.00 L 74.00 63.00 L 74.00 65.00 L 72.00 68.00 L 72.00 70.00 L 71.00 71.00 L 71.00 73.00 L 69.00 76.00 L 69.00 78.00 L 68.00 79.00 L 68.00 81.00 L 66.00 84.00 L 63.00 79.00 L 63.00 77.00 L 61.00 74.00 L 61.00 72.00 L 60.00 71.00 L 60.00 69.00 L 58.00 66.00 L 58.00 64.00 L 57.00 63.00 L 53.00 63.00 L 53.00 66.00 L 55.00 69.00 L 55.00 71.00 L 58.00 76.00 L 58.00 78.00 L 60.00 81.00 L 60.00 83.00 L 61.00 84.00 L 61.00 85.00 L 62.00 86.00 L 62.00 88.00 L 64.00 91.00 L 64.00 92.00 L 63.00 93.00 L 62.00 96.00 L 60.00 98.00 L 54.00 98.00 L 54.00 101.00 L 63.00 101.00 L 66.00 98.00 L 66.00 97.00 L 67.00 96.00 L 67.00 94.00 L 68.00 93.00 L 68.00 91.00 L 70.00 88.00 L 70.00 86.00 L 71.00 85.00 L 71.00 83.00 L 73.00 80.00 L 73.00 78.00 L 74.00 77.00 L 74.00 75.00 L 76.00 72.00 L 76.00 70.00 L 78.00 67.00 L 78.00 65.00 L 79.00 64.00 Z
  M 24.00 73.00 L 25.00 72.00 L 38.00 72.00 L 39.00 73.00 L 40.00 73.00 L 44.00 77.00 L 44.00 83.00 L 40.00 87.00 L 37.00 87.00 L 36.00 88.00 L 25.00 88.00 L 24.00 87.00 Z
  M 24.00 68.00 L 24.00 56.00 L 25.00 55.00 L 39.00 55.00 L 42.00 58.00 L 42.00 60.00 L 43.00 61.00 L 43.00 62.00 L 40.00 67.00 L 39.00 67.00 L 36.00 69.00 L 25.00 69.00 Z
  M 601.00 16.00 L 601.00 30.00 L 602.00 30.00 L 602.00 25.00 L 603.00 24.00 L 607.00 24.00 L 608.00 25.00 L 608.00 26.00 L 609.00 27.00 L 610.00 30.00 L 611.00 30.00 L 611.00 28.00 L 610.00 27.00 L 609.00 24.00 L 612.00 21.00 L 612.00 18.00 L 610.00 16.00 L 608.00 16.00 L 608.00 17.00 L 609.00 17.00 L 610.00 18.00 L 610.00 21.00 L 608.00 23.00 L 604.00 23.00 L 602.00 21.00 L 602.00 18.00 L 603.00 17.00 L 603.00 16.00 Z" fill="#000000" fill-rule="evenodd"/>
</svg>
