<?xml version="1.0" encoding="UTF-8"?>
<svg xmlns="http://www.w3.org/2000/svg" width="638" height="127" viewBox="0 0 638 127" role="img" aria-label="By PerformOS white transparent">
  <title>By PerformOS white transparent</title>
  <path d="M 485.00 20.00 L 484.00 21.00 L 478.00 21.00 L 477.00 22.00 L 475.00 22.00 L 474.00 23.00 L 472.00 23.00 L 469.00 26.00 L 466.00 27.00 L 461.00 32.00 L 461.00 33.00 L 460.00 34.00 L 459.00 34.00 L 459.00 35.00 L 458.00 36.00 L 458.00 37.00 L 455.00 42.00 L 455.00 44.00 L 453.00 47.00 L 453.00 50.00 L 452.00 51.00 L 452.00 58.00 L 451.00 59.00 L 451.00 62.00 L 452.00 63.00 L 452.00 71.00 L 453.00 72.00 L 453.00 75.00 L 455.00 77.00 L 455.00 79.00 L 456.00 80.00 L 456.00 82.00 L 457.00 83.00 L 457.00 84.00 L 459.00 86.00 L 459.00 87.00 L 468.00 96.00 L 469.00 96.00 L 472.00 98.00 L 474.00 98.00 L 475.00 99.00 L 478.00 99.00 L 479.00 100.00 L 484.00 100.00 L 485.00 101.00 L 491.00 101.00 L 492.00 100.00 L 498.00 100.00 L 499.00 99.00 L 502.00 99.00 L 503.00 98.00 L 504.00 98.00 L 505.00 97.00 L 508.00 96.00 L 508.00 95.00 L 509.00 94.00 L 512.00 93.00 L 516.00 89.00 L 517.00 86.00 L 518.00 85.00 L 519.00 85.00 L 519.00 84.00 L 522.00 79.00 L 522.00 76.00 L 524.00 74.00 L 523.00 73.00 L 523.00 72.00 L 524.00 71.00 L 524.00 69.00 L 525.00 68.00 L 525.00 52.00 L 524.00 51.00 L 524.00 49.00 L 523.00 48.00 L 524.00 47.00 L 522.00 45.00 L 522.00 43.00 L 521.00 42.00 L 521.00 40.00 L 520.00 39.00 L 519.00 36.00 L 513.00 30.00 L 513.00 29.00 L 512.00 28.00 L 511.00 28.00 L 509.00 26.00 L 506.00 25.00 L 504.00 23.00 L 503.00 23.00 L 502.00 22.00 L 500.00 22.00 L 499.00 21.00 L 493.00 21.00 L 492.00 20.00 Z
  M 331.00 55.00 L 330.00 55.00 L 329.00 54.00 L 329.00 53.00 L 325.00 48.00 L 324.00 48.00 L 322.00 46.00 L 319.00 45.00 L 317.00 43.00 L 315.00 43.00 L 314.00 42.00 L 301.00 42.00 L 300.00 43.00 L 297.00 43.00 L 297.00 44.00 L 296.00 45.00 L 295.00 44.00 L 293.00 46.00 L 292.00 46.00 L 290.00 48.00 L 289.00 48.00 L 286.00 51.00 L 286.00 52.00 L 285.00 53.00 L 284.00 52.00 L 284.00 43.00 L 271.00 43.00 L 270.00 42.00 L 270.00 34.00 L 271.00 33.00 L 271.00 32.00 L 273.00 30.00 L 284.00 30.00 L 284.00 22.00 L 283.00 21.00 L 278.00 21.00 L 277.00 22.00 L 268.00 22.00 L 267.00 23.00 L 266.00 23.00 L 262.00 27.00 L 262.00 29.00 L 261.00 30.00 L 261.00 34.00 L 260.00 35.00 L 260.00 42.00 L 259.00 43.00 L 245.00 43.00 L 244.00 44.00 L 241.00 44.00 L 238.00 47.00 L 237.00 47.00 L 235.00 49.00 L 234.00 48.00 L 234.00 43.00 L 223.00 43.00 L 223.00 99.00 L 234.00 99.00 L 234.00 63.00 L 235.00 62.00 L 235.00 60.00 L 236.00 59.00 L 236.00 58.00 L 238.00 56.00 L 239.00 56.00 L 242.00 54.00 L 244.00 54.00 L 245.00 53.00 L 259.00 53.00 L 260.00 54.00 L 260.00 99.00 L 270.00 99.00 L 270.00 53.00 L 271.00 52.00 L 272.00 53.00 L 283.00 53.00 L 284.00 54.00 L 284.00 55.00 L 283.00 56.00 L 283.00 58.00 L 282.00 59.00 L 282.00 61.00 L 281.00 62.00 L 281.00 66.00 L 280.00 67.00 L 280.00 76.00 L 281.00 77.00 L 281.00 80.00 L 282.00 81.00 L 282.00 84.00 L 283.00 85.00 L 283.00 87.00 L 284.00 88.00 L 285.00 91.00 L 286.00 92.00 L 287.00 92.00 L 290.00 95.00 L 290.00 96.00 L 291.00 96.00 L 296.00 99.00 L 298.00 99.00 L 299.00 100.00 L 304.00 100.00 L 305.00 101.00 L 310.00 101.00 L 311.00 100.00 L 315.00 100.00 L 316.00 99.00 L 318.00 99.00 L 319.00 98.00 L 322.00 97.00 L 325.00 94.00 L 326.00 94.00 L 326.00 93.00 L 329.00 90.00 L 329.00 89.00 L 331.00 87.00 L 331.00 86.00 L 332.00 85.00 L 332.00 83.00 L 333.00 82.00 L 333.00 79.00 L 334.00 78.00 L 334.00 65.00 L 333.00 64.00 L 333.00 61.00 L 332.00 60.00 L 332.00 58.00 L 331.00 57.00 Z
  M 155.00 22.00 L 117.00 22.00 L 116.00 21.00 L 114.00 21.00 L 114.00 22.00 L 113.00 23.00 L 113.00 99.00 L 124.00 99.00 L 124.00 70.00 L 125.00 69.00 L 152.00 69.00 L 153.00 68.00 L 156.00 68.00 L 158.00 66.00 L 160.00 66.00 L 162.00 64.00 L 165.00 63.00 L 166.00 62.00 L 166.00 61.00 L 167.00 60.00 L 168.00 57.00 L 170.00 55.00 L 170.00 54.00 L 171.00 53.00 L 171.00 49.00 L 172.00 48.00 L 172.00 43.00 L 171.00 42.00 L 171.00 38.00 L 169.00 36.00 L 169.00 34.00 L 168.00 33.00 L 168.00 32.00 L 166.00 30.00 L 166.00 29.00 L 165.00 28.00 L 164.00 28.00 L 162.00 26.00 L 161.00 26.00 L 159.00 24.00 L 158.00 24.00 Z
  M 483.00 29.00 L 493.00 29.00 L 494.00 30.00 L 497.00 30.00 L 498.00 31.00 L 499.00 31.00 L 501.00 33.00 L 502.00 33.00 L 510.00 41.00 L 510.00 42.00 L 512.00 45.00 L 512.00 48.00 L 513.00 49.00 L 513.00 52.00 L 514.00 53.00 L 514.00 68.00 L 513.00 69.00 L 513.00 72.00 L 512.00 73.00 L 512.00 76.00 L 511.00 77.00 L 510.00 80.00 L 506.00 84.00 L 506.00 85.00 L 503.00 88.00 L 502.00 88.00 L 497.00 91.00 L 493.00 91.00 L 492.00 92.00 L 485.00 92.00 L 484.00 91.00 L 480.00 91.00 L 477.00 89.00 L 475.00 89.00 L 470.00 84.00 L 470.00 83.00 L 469.00 83.00 L 468.00 82.00 L 468.00 81.00 L 466.00 79.00 L 466.00 77.00 L 465.00 76.00 L 465.00 74.00 L 464.00 73.00 L 464.00 69.00 L 463.00 68.00 L 463.00 53.00 L 464.00 52.00 L 464.00 48.00 L 465.00 47.00 L 465.00 45.00 L 466.00 44.00 L 466.00 42.00 L 470.00 38.00 L 470.00 37.00 L 473.00 34.00 L 474.00 34.00 L 476.00 32.00 L 477.00 32.00 L 480.00 30.00 L 482.00 30.00 Z
  M 368.00 43.00 L 368.00 99.00 L 379.00 99.00 L 379.00 61.00 L 380.00 60.00 L 381.00 57.00 L 387.00 51.00 L 389.00 51.00 L 390.00 50.00 L 394.00 50.00 L 395.00 51.00 L 397.00 51.00 L 398.00 52.00 L 399.00 52.00 L 400.00 53.00 L 400.00 54.00 L 402.00 56.00 L 402.00 58.00 L 403.00 59.00 L 403.00 99.00 L 414.00 99.00 L 414.00 62.00 L 415.00 61.00 L 415.00 58.00 L 417.00 56.00 L 417.00 55.00 L 422.00 51.00 L 424.00 51.00 L 425.00 50.00 L 430.00 50.00 L 431.00 51.00 L 434.00 52.00 L 438.00 58.00 L 438.00 64.00 L 439.00 65.00 L 439.00 95.00 L 438.00 96.00 L 438.00 99.00 L 449.00 99.00 L 449.00 57.00 L 448.00 56.00 L 448.00 53.00 L 447.00 53.00 L 446.00 52.00 L 446.00 50.00 L 444.00 48.00 L 444.00 47.00 L 443.00 47.00 L 440.00 44.00 L 439.00 44.00 L 438.00 43.00 L 436.00 43.00 L 435.00 42.00 L 424.00 42.00 L 423.00 43.00 L 421.00 43.00 L 420.00 44.00 L 419.00 44.00 L 417.00 46.00 L 416.00 46.00 L 410.00 52.00 L 409.00 51.00 L 409.00 49.00 L 407.00 47.00 L 406.00 47.00 L 402.00 43.00 L 400.00 43.00 L 399.00 42.00 L 390.00 42.00 L 389.00 43.00 L 387.00 43.00 L 386.00 44.00 L 385.00 44.00 L 380.00 48.00 L 379.00 47.00 L 379.00 44.00 L 378.00 43.00 Z
  M 547.00 21.00 L 546.00 22.00 L 544.00 22.00 L 543.00 23.00 L 541.00 23.00 L 538.00 26.00 L 535.00 27.00 L 534.00 28.00 L 534.00 29.00 L 532.00 31.00 L 531.00 34.00 L 529.00 36.00 L 529.00 40.00 L 528.00 41.00 L 528.00 44.00 L 529.00 45.00 L 529.00 49.00 L 531.00 51.00 L 532.00 54.00 L 535.00 57.00 L 536.00 57.00 L 537.00 58.00 L 540.00 59.00 L 542.00 61.00 L 544.00 61.00 L 545.00 62.00 L 548.00 62.00 L 549.00 63.00 L 552.00 63.00 L 553.00 64.00 L 558.00 64.00 L 559.00 65.00 L 562.00 65.00 L 565.00 67.00 L 568.00 67.00 L 569.00 68.00 L 571.00 68.00 L 572.00 69.00 L 573.00 69.00 L 577.00 73.00 L 577.00 74.00 L 578.00 75.00 L 578.00 82.00 L 577.00 83.00 L 576.00 86.00 L 573.00 89.00 L 572.00 89.00 L 571.00 90.00 L 569.00 90.00 L 568.00 91.00 L 563.00 91.00 L 562.00 92.00 L 556.00 92.00 L 555.00 91.00 L 550.00 91.00 L 549.00 90.00 L 547.00 90.00 L 546.00 89.00 L 545.00 89.00 L 540.00 84.00 L 540.00 83.00 L 537.00 80.00 L 537.00 78.00 L 536.00 77.00 L 536.00 75.00 L 526.00 75.00 L 526.00 80.00 L 527.00 81.00 L 527.00 83.00 L 528.00 84.00 L 528.00 86.00 L 530.00 88.00 L 530.00 89.00 L 536.00 95.00 L 537.00 95.00 L 539.00 97.00 L 540.00 97.00 L 541.00 98.00 L 543.00 98.00 L 544.00 99.00 L 547.00 99.00 L 548.00 100.00 L 554.00 100.00 L 555.00 101.00 L 562.00 101.00 L 563.00 100.00 L 569.00 100.00 L 570.00 99.00 L 573.00 99.00 L 574.00 98.00 L 576.00 98.00 L 577.00 97.00 L 580.00 96.00 L 586.00 90.00 L 586.00 89.00 L 588.00 87.00 L 588.00 85.00 L 589.00 84.00 L 589.00 71.00 L 588.00 70.00 L 588.00 69.00 L 586.00 67.00 L 586.00 66.00 L 584.00 64.00 L 584.00 63.00 L 583.00 63.00 L 581.00 61.00 L 579.00 61.00 L 577.00 59.00 L 575.00 59.00 L 573.00 57.00 L 570.00 57.00 L 569.00 56.00 L 565.00 56.00 L 564.00 55.00 L 560.00 55.00 L 559.00 54.00 L 555.00 54.00 L 554.00 53.00 L 551.00 53.00 L 549.00 51.00 L 547.00 51.00 L 546.00 50.00 L 543.00 49.00 L 541.00 47.00 L 541.00 46.00 L 540.00 45.00 L 540.00 38.00 L 541.00 37.00 L 541.00 36.00 L 545.00 32.00 L 546.00 32.00 L 548.00 30.00 L 550.00 30.00 L 551.00 29.00 L 563.00 29.00 L 564.00 30.00 L 566.00 30.00 L 567.00 31.00 L 568.00 31.00 L 574.00 37.00 L 576.00 43.00 L 587.00 43.00 L 587.00 42.00 L 586.00 41.00 L 587.00 40.00 L 587.00 39.00 L 585.00 37.00 L 585.00 35.00 L 584.00 34.00 L 584.00 33.00 L 583.00 32.00 L 582.00 29.00 L 581.00 29.00 L 578.00 26.00 L 577.00 26.00 L 575.00 24.00 L 574.00 24.00 L 571.00 22.00 L 569.00 22.00 L 568.00 21.00 L 563.00 21.00 L 562.00 20.00 L 553.00 20.00 L 552.00 21.00 Z
  M 189.00 42.00 L 188.00 43.00 L 185.00 43.00 L 184.00 44.00 L 183.00 44.00 L 181.00 46.00 L 180.00 46.00 L 173.00 53.00 L 173.00 54.00 L 171.00 57.00 L 171.00 59.00 L 169.00 61.00 L 170.00 62.00 L 168.00 65.00 L 168.00 76.00 L 169.00 77.00 L 169.00 79.00 L 170.00 80.00 L 170.00 83.00 L 172.00 86.00 L 172.00 88.00 L 173.00 89.00 L 173.00 90.00 L 180.00 97.00 L 181.00 97.00 L 184.00 99.00 L 186.00 99.00 L 187.00 100.00 L 192.00 100.00 L 193.00 101.00 L 198.00 101.00 L 199.00 100.00 L 203.00 100.00 L 204.00 99.00 L 206.00 99.00 L 207.00 98.00 L 209.00 98.00 L 216.00 91.00 L 217.00 88.00 L 219.00 86.00 L 219.00 85.00 L 218.00 84.00 L 220.00 82.00 L 209.00 82.00 L 209.00 83.00 L 208.00 84.00 L 208.00 86.00 L 203.00 91.00 L 201.00 91.00 L 200.00 92.00 L 191.00 92.00 L 190.00 91.00 L 188.00 91.00 L 187.00 90.00 L 186.00 90.00 L 182.00 86.00 L 182.00 85.00 L 180.00 82.00 L 180.00 79.00 L 179.00 78.00 L 179.00 75.00 L 180.00 74.00 L 220.00 74.00 L 220.00 61.00 L 219.00 60.00 L 219.00 58.00 L 218.00 57.00 L 218.00 56.00 L 217.00 55.00 L 217.00 54.00 L 216.00 53.00 L 215.00 50.00 L 214.00 49.00 L 213.00 49.00 L 210.00 46.00 L 209.00 46.00 L 208.00 45.00 L 207.00 45.00 L 205.00 43.00 L 203.00 43.00 L 202.00 42.00 Z
  M 303.00 50.00 L 311.00 50.00 L 312.00 51.00 L 314.00 51.00 L 315.00 52.00 L 315.00 53.00 L 316.00 52.00 L 317.00 53.00 L 317.00 54.00 L 320.00 57.00 L 321.00 60.00 L 323.00 62.00 L 323.00 65.00 L 324.00 66.00 L 324.00 77.00 L 323.00 78.00 L 323.00 81.00 L 321.00 83.00 L 320.00 86.00 L 315.00 91.00 L 313.00 91.00 L 312.00 92.00 L 302.00 92.00 L 301.00 91.00 L 298.00 90.00 L 293.00 85.00 L 293.00 84.00 L 292.00 83.00 L 292.00 80.00 L 291.00 79.00 L 291.00 73.00 L 290.00 72.00 L 290.00 70.00 L 291.00 69.00 L 291.00 64.00 L 292.00 63.00 L 292.00 60.00 L 293.00 59.00 L 293.00 58.00 L 299.00 52.00 L 300.00 52.00 Z
  M 18.00 50.00 L 18.00 90.00 L 41.00 90.00 L 42.00 89.00 L 43.00 89.00 L 47.00 85.00 L 47.00 84.00 L 48.00 83.00 L 48.00 76.00 L 47.00 75.00 L 47.00 74.00 L 43.00 70.00 L 41.00 70.00 L 40.00 69.00 L 41.00 68.00 L 42.00 68.00 L 45.00 65.00 L 45.00 64.00 L 46.00 63.00 L 46.00 55.00 L 44.00 53.00 L 44.00 52.00 L 43.00 52.00 L 40.00 50.00 Z
  M 124.00 31.00 L 125.00 30.00 L 148.00 30.00 L 149.00 31.00 L 152.00 31.00 L 154.00 33.00 L 155.00 33.00 L 159.00 37.00 L 159.00 39.00 L 160.00 40.00 L 160.00 51.00 L 159.00 52.00 L 158.00 55.00 L 157.00 56.00 L 156.00 56.00 L 153.00 59.00 L 152.00 59.00 L 151.00 60.00 L 147.00 60.00 L 146.00 61.00 L 125.00 61.00 L 124.00 60.00 Z
  M 365.00 43.00 L 358.00 43.00 L 357.00 44.00 L 355.00 44.00 L 353.00 46.00 L 352.00 46.00 L 348.00 50.00 L 347.00 49.00 L 347.00 43.00 L 337.00 43.00 L 337.00 99.00 L 347.00 99.00 L 347.00 63.00 L 348.00 62.00 L 348.00 60.00 L 349.00 59.00 L 349.00 58.00 L 351.00 56.00 L 352.00 56.00 L 355.00 54.00 L 357.00 54.00 L 358.00 53.00 L 364.00 53.00 L 365.00 52.00 Z
  M 602.00 7.00 L 601.00 8.00 L 598.00 8.00 L 597.00 9.00 L 596.00 9.00 L 596.00 10.00 L 591.00 15.00 L 591.00 16.00 L 590.00 17.00 L 590.00 26.00 L 591.00 27.00 L 591.00 28.00 L 595.00 32.00 L 595.00 33.00 L 596.00 34.00 L 598.00 34.00 L 599.00 35.00 L 601.00 35.00 L 602.00 36.00 L 607.00 36.00 L 608.00 35.00 L 611.00 35.00 L 612.00 34.00 L 613.00 34.00 L 618.00 29.00 L 618.00 27.00 L 619.00 26.00 L 619.00 17.00 L 618.00 16.00 L 618.00 14.00 L 616.00 12.00 L 615.00 12.00 L 611.00 8.00 L 608.00 8.00 L 607.00 7.00 Z
  M 600.00 11.00 L 602.00 11.00 L 603.00 10.00 L 609.00 10.00 L 610.00 11.00 L 610.00 12.00 L 613.00 13.00 L 614.00 14.00 L 614.00 15.00 L 616.00 17.00 L 616.00 26.00 L 614.00 28.00 L 614.00 29.00 L 609.00 33.00 L 600.00 33.00 L 598.00 31.00 L 597.00 31.00 L 596.00 30.00 L 596.00 29.00 L 593.00 26.00 L 593.00 20.00 L 594.00 19.00 L 593.00 18.00 L 593.00 17.00 L 594.00 16.00 L 595.00 16.00 L 595.00 15.00 L 598.00 12.00 L 599.00 12.00 Z
  M 179.00 65.00 L 180.00 64.00 L 180.00 61.00 L 181.00 60.00 L 182.00 57.00 L 187.00 52.00 L 188.00 52.00 L 191.00 50.00 L 199.00 50.00 L 200.00 51.00 L 202.00 51.00 L 208.00 57.00 L 208.00 59.00 L 209.00 60.00 L 209.00 63.00 L 210.00 64.00 L 210.00 66.00 L 209.00 67.00 L 180.00 67.00 L 179.00 66.00 Z
  M 78.00 62.00 L 73.00 62.00 L 73.00 63.00 L 72.00 64.00 L 72.00 66.00 L 70.00 69.00 L 70.00 71.00 L 69.00 72.00 L 69.00 74.00 L 67.00 77.00 L 67.00 79.00 L 66.00 80.00 L 66.00 82.00 L 65.00 83.00 L 63.00 80.00 L 63.00 78.00 L 62.00 77.00 L 62.00 75.00 L 60.00 72.00 L 60.00 70.00 L 58.00 67.00 L 58.00 65.00 L 57.00 64.00 L 57.00 63.00 L 56.00 62.00 L 51.00 62.00 L 51.00 63.00 L 53.00 66.00 L 53.00 68.00 L 55.00 71.00 L 55.00 73.00 L 57.00 76.00 L 57.00 78.00 L 59.00 81.00 L 59.00 83.00 L 61.00 86.00 L 61.00 88.00 L 62.00 89.00 L 62.00 93.00 L 61.00 94.00 L 61.00 95.00 L 58.00 97.00 L 53.00 97.00 L 53.00 100.00 L 63.00 100.00 L 65.00 98.00 L 65.00 96.00 L 67.00 93.00 L 67.00 91.00 L 68.00 90.00 L 68.00 88.00 L 70.00 85.00 L 70.00 83.00 L 71.00 82.00 L 71.00 80.00 L 72.00 79.00 L 72.00 78.00 L 73.00 77.00 L 73.00 75.00 L 75.00 72.00 L 75.00 70.00 L 76.00 69.00 L 76.00 67.00 L 77.00 66.00 L 77.00 64.00 L 78.00 63.00 Z
  M 23.00 72.00 L 24.00 71.00 L 36.00 71.00 L 37.00 72.00 L 39.00 72.00 L 42.00 75.00 L 42.00 76.00 L 43.00 77.00 L 43.00 81.00 L 42.00 82.00 L 42.00 83.00 L 40.00 85.00 L 39.00 85.00 L 38.00 86.00 L 24.00 86.00 L 23.00 85.00 Z
  M 23.00 55.00 L 24.00 54.00 L 37.00 54.00 L 38.00 55.00 L 39.00 55.00 L 41.00 58.00 L 41.00 63.00 L 37.00 67.00 L 24.00 67.00 L 23.00 66.00 Z
  M 599.00 14.00 L 599.00 29.00 L 602.00 29.00 L 602.00 24.00 L 603.00 23.00 L 605.00 23.00 L 606.00 24.00 L 606.00 26.00 L 607.00 26.00 L 609.00 29.00 L 611.00 29.00 L 611.00 27.00 L 610.00 26.00 L 610.00 25.00 L 608.00 23.00 L 611.00 21.00 L 611.00 19.00 L 612.00 18.00 L 611.00 17.00 L 611.00 15.00 L 610.00 15.00 L 609.00 14.00 Z
  M 602.00 17.00 L 603.00 16.00 L 607.00 16.00 L 609.00 18.00 L 609.00 19.00 L 607.00 21.00 L 603.00 21.00 L 602.00 20.00 Z
  M 378.00 48.00 L 379.00 47.00 L 380.00 48.00 L 379.00 49.00 Z
  M 283.00 53.00 L 284.00 52.00 L 285.00 53.00 L 284.00 54.00 Z
  M 233.00 49.00 L 234.00 48.00 L 235.00 49.00 L 234.00 50.00 Z" fill="#FFFFFF" fill-rule="evenodd"/>
</svg>
