<?xml version="1.0" encoding="UTF-8"?>
<svg xmlns="http://www.w3.org/2000/svg" width="700" height="132" viewBox="0 0 700 132" role="img" aria-label="With PerformOS white on black">
  <title>With PerformOS white on black</title>
  <rect width="700" height="132" fill="#000000"/>
  <path d="M 526.00 22.00 L 525.00 23.00 L 522.00 23.00 L 521.00 24.00 L 520.00 24.00 L 519.00 25.00 L 518.00 25.00 L 517.00 26.00 L 516.00 26.00 L 515.00 27.00 L 512.00 28.00 L 505.00 35.00 L 505.00 36.00 L 503.00 38.00 L 503.00 39.00 L 501.00 42.00 L 501.00 44.00 L 500.00 45.00 L 500.00 47.00 L 499.00 48.00 L 499.00 50.00 L 498.00 51.00 L 498.00 55.00 L 497.00 56.00 L 497.00 67.00 L 498.00 68.00 L 498.00 73.00 L 500.00 76.00 L 500.00 78.00 L 501.00 79.00 L 501.00 81.00 L 502.00 82.00 L 502.00 83.00 L 503.00 84.00 L 504.00 87.00 L 512.00 95.00 L 513.00 95.00 L 515.00 97.00 L 516.00 97.00 L 519.00 99.00 L 521.00 99.00 L 522.00 100.00 L 526.00 100.00 L 527.00 101.00 L 540.00 101.00 L 541.00 100.00 L 544.00 100.00 L 545.00 99.00 L 547.00 99.00 L 548.00 98.00 L 550.00 98.00 L 551.00 97.00 L 552.00 97.00 L 561.00 89.00 L 561.00 88.00 L 563.00 86.00 L 564.00 83.00 L 566.00 81.00 L 566.00 79.00 L 567.00 78.00 L 567.00 76.00 L 568.00 75.00 L 568.00 70.00 L 569.00 69.00 L 569.00 54.00 L 568.00 53.00 L 568.00 48.00 L 567.00 47.00 L 567.00 45.00 L 566.00 44.00 L 566.00 42.00 L 565.00 41.00 L 565.00 40.00 L 563.00 38.00 L 563.00 37.00 L 561.00 35.00 L 561.00 34.00 L 556.00 29.00 L 555.00 29.00 L 553.00 27.00 L 552.00 27.00 L 551.00 26.00 L 550.00 26.00 L 545.00 23.00 L 542.00 23.00 L 541.00 22.00 Z
  M 531.00 29.00 L 535.00 29.00 L 536.00 30.00 L 539.00 30.00 L 540.00 31.00 L 543.00 31.00 L 544.00 32.00 L 547.00 33.00 L 555.00 41.00 L 555.00 42.00 L 556.00 43.00 L 556.00 45.00 L 558.00 48.00 L 558.00 51.00 L 560.00 54.00 L 560.00 69.00 L 558.00 72.00 L 558.00 75.00 L 557.00 76.00 L 557.00 78.00 L 556.00 79.00 L 555.00 82.00 L 547.00 90.00 L 546.00 90.00 L 544.00 92.00 L 542.00 92.00 L 541.00 93.00 L 536.00 93.00 L 535.00 94.00 L 531.00 94.00 L 530.00 93.00 L 526.00 93.00 L 525.00 92.00 L 523.00 92.00 L 522.00 91.00 L 521.00 91.00 L 519.00 89.00 L 518.00 89.00 L 513.00 84.00 L 512.00 81.00 L 510.00 79.00 L 510.00 78.00 L 509.00 77.00 L 509.00 75.00 L 508.00 74.00 L 508.00 70.00 L 507.00 69.00 L 507.00 54.00 L 508.00 53.00 L 508.00 49.00 L 509.00 48.00 L 509.00 46.00 L 510.00 45.00 L 510.00 44.00 L 512.00 42.00 L 512.00 41.00 L 514.00 39.00 L 514.00 38.00 L 518.00 34.00 L 519.00 34.00 L 524.00 31.00 L 526.00 31.00 L 527.00 30.00 L 530.00 30.00 Z
  M 208.00 28.00 L 207.00 28.00 L 202.00 25.00 L 200.00 25.00 L 199.00 24.00 L 197.00 24.00 L 196.00 23.00 L 160.00 23.00 L 159.00 24.00 L 159.00 99.00 L 160.00 100.00 L 168.00 100.00 L 168.00 70.00 L 169.00 69.00 L 197.00 69.00 L 198.00 68.00 L 201.00 68.00 L 202.00 67.00 L 203.00 67.00 L 204.00 66.00 L 207.00 65.00 L 213.00 59.00 L 213.00 58.00 L 214.00 57.00 L 214.00 55.00 L 215.00 54.00 L 215.00 50.00 L 216.00 49.00 L 216.00 44.00 L 215.00 43.00 L 215.00 38.00 L 214.00 37.00 L 213.00 34.00 L 211.00 32.00 L 211.00 31.00 Z
  M 350.00 43.00 L 349.00 44.00 L 346.00 44.00 L 345.00 45.00 L 342.00 45.00 L 341.00 46.00 L 340.00 46.00 L 339.00 47.00 L 336.00 48.00 L 331.00 53.00 L 331.00 54.00 L 328.00 59.00 L 328.00 61.00 L 327.00 62.00 L 327.00 65.00 L 326.00 66.00 L 326.00 79.00 L 327.00 80.00 L 327.00 83.00 L 328.00 84.00 L 328.00 86.00 L 329.00 87.00 L 329.00 88.00 L 330.00 89.00 L 331.00 92.00 L 332.00 93.00 L 333.00 93.00 L 336.00 96.00 L 336.00 97.00 L 337.00 97.00 L 340.00 99.00 L 342.00 99.00 L 343.00 100.00 L 346.00 100.00 L 347.00 101.00 L 357.00 101.00 L 358.00 100.00 L 362.00 100.00 L 363.00 99.00 L 364.00 99.00 L 365.00 98.00 L 368.00 97.00 L 373.00 92.00 L 373.00 91.00 L 376.00 86.00 L 376.00 84.00 L 377.00 83.00 L 377.00 80.00 L 378.00 79.00 L 378.00 77.00 L 379.00 76.00 L 379.00 68.00 L 377.00 65.00 L 377.00 61.00 L 375.00 58.00 L 375.00 56.00 L 373.00 54.00 L 373.00 53.00 L 368.00 48.00 L 367.00 48.00 L 362.00 45.00 L 359.00 45.00 L 358.00 44.00 L 356.00 44.00 L 355.00 43.00 Z
  M 594.00 22.00 L 593.00 23.00 L 591.00 23.00 L 586.00 26.00 L 584.00 26.00 L 582.00 28.00 L 581.00 28.00 L 578.00 31.00 L 578.00 32.00 L 576.00 34.00 L 576.00 36.00 L 575.00 37.00 L 575.00 40.00 L 574.00 41.00 L 574.00 44.00 L 575.00 45.00 L 575.00 50.00 L 576.00 51.00 L 577.00 54.00 L 581.00 58.00 L 582.00 58.00 L 587.00 61.00 L 589.00 61.00 L 590.00 62.00 L 592.00 62.00 L 595.00 64.00 L 599.00 64.00 L 600.00 65.00 L 604.00 65.00 L 605.00 66.00 L 609.00 66.00 L 610.00 67.00 L 613.00 67.00 L 614.00 68.00 L 616.00 68.00 L 617.00 69.00 L 618.00 69.00 L 623.00 74.00 L 623.00 75.00 L 624.00 76.00 L 624.00 82.00 L 623.00 83.00 L 623.00 85.00 L 622.00 86.00 L 622.00 87.00 L 620.00 89.00 L 619.00 89.00 L 617.00 91.00 L 616.00 91.00 L 615.00 92.00 L 613.00 92.00 L 612.00 93.00 L 606.00 93.00 L 605.00 94.00 L 603.00 94.00 L 602.00 93.00 L 596.00 93.00 L 595.00 92.00 L 593.00 92.00 L 592.00 91.00 L 591.00 91.00 L 589.00 89.00 L 588.00 89.00 L 583.00 84.00 L 583.00 83.00 L 582.00 82.00 L 582.00 80.00 L 581.00 79.00 L 581.00 77.00 L 580.00 76.00 L 572.00 76.00 L 571.00 77.00 L 571.00 80.00 L 573.00 83.00 L 573.00 85.00 L 574.00 86.00 L 575.00 89.00 L 581.00 95.00 L 582.00 95.00 L 584.00 97.00 L 585.00 97.00 L 588.00 99.00 L 590.00 99.00 L 591.00 100.00 L 596.00 100.00 L 597.00 101.00 L 611.00 101.00 L 612.00 100.00 L 616.00 100.00 L 617.00 99.00 L 619.00 99.00 L 620.00 98.00 L 622.00 98.00 L 624.00 96.00 L 625.00 96.00 L 631.00 90.00 L 631.00 89.00 L 633.00 86.00 L 633.00 82.00 L 634.00 81.00 L 634.00 76.00 L 633.00 75.00 L 633.00 71.00 L 631.00 69.00 L 631.00 68.00 L 625.00 62.00 L 624.00 62.00 L 621.00 60.00 L 619.00 60.00 L 618.00 59.00 L 615.00 59.00 L 614.00 58.00 L 610.00 58.00 L 607.00 56.00 L 603.00 56.00 L 602.00 55.00 L 599.00 55.00 L 598.00 54.00 L 594.00 54.00 L 593.00 53.00 L 592.00 53.00 L 591.00 52.00 L 588.00 51.00 L 584.00 45.00 L 584.00 40.00 L 585.00 39.00 L 585.00 37.00 L 590.00 32.00 L 591.00 32.00 L 592.00 31.00 L 594.00 31.00 L 595.00 30.00 L 598.00 30.00 L 599.00 29.00 L 605.00 29.00 L 606.00 30.00 L 609.00 30.00 L 610.00 31.00 L 612.00 31.00 L 613.00 32.00 L 614.00 32.00 L 619.00 37.00 L 619.00 38.00 L 621.00 40.00 L 621.00 43.00 L 622.00 44.00 L 630.00 44.00 L 631.00 43.00 L 631.00 42.00 L 630.00 41.00 L 630.00 38.00 L 629.00 37.00 L 629.00 35.00 L 627.00 33.00 L 627.00 32.00 L 622.00 27.00 L 621.00 27.00 L 620.00 26.00 L 619.00 26.00 L 614.00 23.00 L 611.00 23.00 L 610.00 22.00 Z
  M 414.00 45.00 L 414.00 100.00 L 422.00 100.00 L 423.00 99.00 L 423.00 62.00 L 424.00 61.00 L 424.00 59.00 L 427.00 56.00 L 427.00 55.00 L 428.00 54.00 L 429.00 54.00 L 431.00 52.00 L 433.00 52.00 L 434.00 51.00 L 440.00 51.00 L 441.00 52.00 L 443.00 52.00 L 447.00 56.00 L 447.00 57.00 L 449.00 60.00 L 449.00 100.00 L 457.00 100.00 L 458.00 99.00 L 458.00 64.00 L 459.00 63.00 L 459.00 61.00 L 460.00 60.00 L 460.00 58.00 L 461.00 57.00 L 461.00 56.00 L 464.00 53.00 L 465.00 53.00 L 466.00 52.00 L 468.00 52.00 L 469.00 51.00 L 476.00 51.00 L 477.00 52.00 L 480.00 53.00 L 481.00 54.00 L 481.00 55.00 L 484.00 60.00 L 484.00 100.00 L 493.00 100.00 L 493.00 58.00 L 492.00 57.00 L 492.00 55.00 L 491.00 54.00 L 491.00 53.00 L 490.00 52.00 L 489.00 49.00 L 487.00 47.00 L 486.00 47.00 L 483.00 45.00 L 480.00 45.00 L 477.00 43.00 L 472.00 43.00 L 471.00 44.00 L 469.00 44.00 L 468.00 45.00 L 466.00 45.00 L 465.00 46.00 L 462.00 47.00 L 457.00 52.00 L 457.00 53.00 L 456.00 54.00 L 455.00 54.00 L 454.00 53.00 L 453.00 50.00 L 450.00 47.00 L 449.00 47.00 L 447.00 45.00 L 445.00 45.00 L 444.00 44.00 L 442.00 44.00 L 441.00 43.00 L 438.00 43.00 L 437.00 44.00 L 435.00 44.00 L 434.00 45.00 L 432.00 45.00 L 431.00 46.00 L 428.00 47.00 L 424.00 51.00 L 423.00 50.00 L 423.00 46.00 L 422.00 45.00 Z
  M 238.00 43.00 L 237.00 44.00 L 235.00 44.00 L 234.00 45.00 L 231.00 45.00 L 230.00 46.00 L 229.00 46.00 L 228.00 47.00 L 225.00 48.00 L 220.00 53.00 L 220.00 54.00 L 218.00 56.00 L 218.00 57.00 L 216.00 60.00 L 216.00 62.00 L 215.00 63.00 L 215.00 68.00 L 214.00 69.00 L 214.00 76.00 L 215.00 77.00 L 215.00 82.00 L 216.00 83.00 L 216.00 85.00 L 217.00 86.00 L 218.00 89.00 L 220.00 91.00 L 220.00 92.00 L 225.00 97.00 L 226.00 97.00 L 231.00 100.00 L 234.00 100.00 L 235.00 101.00 L 245.00 101.00 L 246.00 100.00 L 250.00 100.00 L 251.00 99.00 L 254.00 98.00 L 256.00 96.00 L 257.00 96.00 L 261.00 91.00 L 261.00 90.00 L 262.00 89.00 L 262.00 87.00 L 263.00 86.00 L 263.00 84.00 L 255.00 84.00 L 254.00 85.00 L 253.00 88.00 L 249.00 92.00 L 248.00 92.00 L 245.00 94.00 L 236.00 94.00 L 235.00 93.00 L 233.00 93.00 L 232.00 92.00 L 231.00 92.00 L 228.00 89.00 L 228.00 88.00 L 226.00 86.00 L 226.00 85.00 L 224.00 82.00 L 224.00 79.00 L 223.00 78.00 L 223.00 75.00 L 224.00 74.00 L 264.00 74.00 L 264.00 63.00 L 263.00 62.00 L 263.00 59.00 L 262.00 58.00 L 262.00 56.00 L 261.00 55.00 L 260.00 52.00 L 256.00 48.00 L 255.00 48.00 L 250.00 45.00 L 247.00 45.00 L 246.00 44.00 L 244.00 44.00 L 243.00 43.00 Z
  M 329.00 23.00 L 316.00 23.00 L 315.00 24.00 L 313.00 24.00 L 312.00 25.00 L 311.00 25.00 L 308.00 28.00 L 308.00 29.00 L 307.00 30.00 L 307.00 32.00 L 306.00 33.00 L 306.00 43.00 L 304.00 45.00 L 290.00 45.00 L 289.00 46.00 L 287.00 46.00 L 286.00 47.00 L 284.00 47.00 L 281.00 50.00 L 281.00 51.00 L 280.00 52.00 L 279.00 52.00 L 278.00 51.00 L 278.00 46.00 L 277.00 45.00 L 269.00 45.00 L 269.00 100.00 L 277.00 100.00 L 278.00 99.00 L 278.00 64.00 L 279.00 63.00 L 280.00 60.00 L 286.00 54.00 L 289.00 54.00 L 290.00 53.00 L 305.00 53.00 L 306.00 54.00 L 306.00 100.00 L 314.00 100.00 L 315.00 99.00 L 315.00 54.00 L 316.00 53.00 L 328.00 53.00 L 328.00 45.00 L 316.00 45.00 L 315.00 44.00 L 315.00 34.00 L 318.00 31.00 L 320.00 31.00 L 321.00 30.00 L 329.00 30.00 Z
  M 348.00 51.00 L 357.00 51.00 L 358.00 52.00 L 361.00 53.00 L 367.00 59.00 L 367.00 61.00 L 368.00 62.00 L 368.00 64.00 L 369.00 65.00 L 369.00 80.00 L 368.00 81.00 L 368.00 83.00 L 367.00 84.00 L 366.00 87.00 L 361.00 92.00 L 360.00 92.00 L 357.00 94.00 L 348.00 94.00 L 347.00 93.00 L 345.00 93.00 L 344.00 92.00 L 343.00 92.00 L 338.00 87.00 L 338.00 86.00 L 336.00 83.00 L 336.00 80.00 L 335.00 79.00 L 335.00 66.00 L 336.00 65.00 L 336.00 62.00 L 337.00 61.00 L 338.00 58.00 L 343.00 53.00 L 344.00 53.00 L 345.00 52.00 L 347.00 52.00 Z
  M 168.00 32.00 L 169.00 31.00 L 195.00 31.00 L 196.00 32.00 L 198.00 32.00 L 199.00 33.00 L 200.00 33.00 L 204.00 37.00 L 204.00 38.00 L 205.00 39.00 L 205.00 41.00 L 207.00 44.00 L 207.00 48.00 L 206.00 49.00 L 206.00 51.00 L 205.00 52.00 L 205.00 53.00 L 204.00 54.00 L 203.00 57.00 L 201.00 59.00 L 200.00 59.00 L 197.00 61.00 L 194.00 61.00 L 193.00 62.00 L 169.00 62.00 L 168.00 61.00 Z
  M 9.00 62.00 L 9.00 65.00 L 10.00 66.00 L 10.00 68.00 L 11.00 69.00 L 11.00 72.00 L 12.00 73.00 L 12.00 76.00 L 13.00 77.00 L 13.00 79.00 L 14.00 80.00 L 14.00 83.00 L 15.00 84.00 L 15.00 87.00 L 16.00 88.00 L 16.00 91.00 L 17.00 92.00 L 17.00 94.00 L 18.00 95.00 L 18.00 98.00 L 19.00 99.00 L 19.00 102.00 L 25.00 102.00 L 25.00 101.00 L 26.00 100.00 L 26.00 97.00 L 27.00 96.00 L 27.00 93.00 L 28.00 92.00 L 28.00 89.00 L 29.00 88.00 L 29.00 85.00 L 30.00 84.00 L 30.00 82.00 L 31.00 81.00 L 31.00 78.00 L 32.00 77.00 L 32.00 74.00 L 33.00 73.00 L 33.00 71.00 L 34.00 70.00 L 35.00 71.00 L 35.00 73.00 L 36.00 74.00 L 36.00 76.00 L 37.00 77.00 L 37.00 80.00 L 38.00 81.00 L 38.00 84.00 L 39.00 85.00 L 39.00 88.00 L 40.00 89.00 L 40.00 92.00 L 41.00 93.00 L 41.00 96.00 L 42.00 97.00 L 42.00 100.00 L 43.00 101.00 L 43.00 102.00 L 49.00 102.00 L 49.00 99.00 L 50.00 98.00 L 50.00 96.00 L 51.00 95.00 L 51.00 92.00 L 52.00 91.00 L 52.00 88.00 L 53.00 87.00 L 53.00 84.00 L 54.00 83.00 L 54.00 81.00 L 55.00 80.00 L 55.00 77.00 L 56.00 76.00 L 56.00 73.00 L 57.00 72.00 L 57.00 69.00 L 58.00 68.00 L 58.00 66.00 L 59.00 65.00 L 59.00 62.00 L 55.00 62.00 L 54.00 63.00 L 54.00 66.00 L 53.00 67.00 L 53.00 70.00 L 52.00 71.00 L 52.00 74.00 L 51.00 75.00 L 51.00 78.00 L 50.00 79.00 L 50.00 82.00 L 49.00 83.00 L 49.00 86.00 L 48.00 87.00 L 48.00 90.00 L 47.00 91.00 L 47.00 94.00 L 46.00 95.00 L 44.00 92.00 L 44.00 89.00 L 43.00 88.00 L 43.00 85.00 L 42.00 84.00 L 42.00 81.00 L 41.00 80.00 L 41.00 77.00 L 40.00 76.00 L 40.00 74.00 L 39.00 73.00 L 39.00 70.00 L 38.00 69.00 L 38.00 66.00 L 37.00 65.00 L 37.00 62.00 L 31.00 62.00 L 31.00 65.00 L 30.00 66.00 L 30.00 69.00 L 29.00 70.00 L 29.00 73.00 L 28.00 74.00 L 28.00 77.00 L 27.00 78.00 L 27.00 80.00 L 26.00 81.00 L 26.00 84.00 L 25.00 85.00 L 25.00 88.00 L 24.00 89.00 L 24.00 92.00 L 22.00 95.00 L 21.00 94.00 L 21.00 91.00 L 20.00 90.00 L 20.00 86.00 L 19.00 85.00 L 19.00 82.00 L 18.00 81.00 L 18.00 78.00 L 17.00 77.00 L 17.00 74.00 L 16.00 73.00 L 16.00 70.00 L 15.00 69.00 L 15.00 66.00 L 14.00 65.00 L 14.00 62.00 Z
  M 409.00 45.00 L 403.00 45.00 L 402.00 46.00 L 400.00 46.00 L 399.00 47.00 L 396.00 48.00 L 392.00 53.00 L 391.00 52.00 L 391.00 45.00 L 382.00 45.00 L 382.00 100.00 L 391.00 100.00 L 391.00 65.00 L 392.00 64.00 L 392.00 63.00 L 393.00 62.00 L 394.00 59.00 L 398.00 55.00 L 399.00 55.00 L 400.00 54.00 L 402.00 54.00 L 403.00 53.00 L 409.00 53.00 Z
  M 646.00 9.00 L 645.00 10.00 L 642.00 11.00 L 640.00 13.00 L 639.00 13.00 L 639.00 14.00 L 637.00 16.00 L 637.00 17.00 L 636.00 18.00 L 636.00 28.00 L 638.00 30.00 L 638.00 31.00 L 643.00 35.00 L 646.00 35.00 L 647.00 36.00 L 652.00 36.00 L 653.00 35.00 L 656.00 35.00 L 657.00 34.00 L 658.00 34.00 L 662.00 30.00 L 662.00 29.00 L 663.00 28.00 L 663.00 24.00 L 664.00 23.00 L 664.00 21.00 L 663.00 20.00 L 663.00 18.00 L 662.00 17.00 L 662.00 15.00 L 658.00 11.00 L 657.00 11.00 L 654.00 9.00 Z
  M 645.00 11.00 L 654.00 11.00 L 655.00 12.00 L 656.00 12.00 L 658.00 14.00 L 659.00 14.00 L 662.00 19.00 L 662.00 26.00 L 661.00 27.00 L 661.00 28.00 L 655.00 34.00 L 652.00 34.00 L 651.00 35.00 L 648.00 35.00 L 647.00 34.00 L 645.00 34.00 L 644.00 33.00 L 643.00 33.00 L 639.00 29.00 L 639.00 28.00 L 637.00 25.00 L 637.00 21.00 L 638.00 20.00 L 638.00 18.00 L 639.00 17.00 L 639.00 16.00 L 643.00 12.00 L 644.00 12.00 Z
  M 223.00 66.00 L 224.00 65.00 L 224.00 62.00 L 226.00 60.00 L 227.00 57.00 L 231.00 53.00 L 232.00 53.00 L 235.00 51.00 L 245.00 51.00 L 246.00 52.00 L 248.00 52.00 L 254.00 58.00 L 254.00 59.00 L 255.00 60.00 L 255.00 63.00 L 256.00 64.00 L 256.00 67.00 L 255.00 68.00 L 224.00 68.00 L 223.00 67.00 Z
  M 97.00 62.00 L 97.00 102.00 L 101.00 102.00 L 101.00 85.00 L 102.00 84.00 L 102.00 82.00 L 103.00 81.00 L 103.00 80.00 L 106.00 77.00 L 108.00 77.00 L 109.00 76.00 L 110.00 76.00 L 111.00 77.00 L 113.00 77.00 L 116.00 80.00 L 116.00 81.00 L 117.00 82.00 L 117.00 102.00 L 121.00 102.00 L 121.00 79.00 L 120.00 78.00 L 120.00 77.00 L 117.00 74.00 L 116.00 74.00 L 115.00 73.00 L 108.00 73.00 L 107.00 74.00 L 104.00 75.00 L 102.00 77.00 L 101.00 76.00 L 101.00 62.00 Z
  M 79.00 64.00 L 79.00 73.00 L 78.00 74.00 L 75.00 74.00 L 75.00 77.00 L 78.00 77.00 L 79.00 78.00 L 79.00 98.00 L 80.00 99.00 L 80.00 100.00 L 82.00 102.00 L 90.00 102.00 L 90.00 99.00 L 86.00 99.00 L 83.00 96.00 L 83.00 79.00 L 85.00 77.00 L 90.00 77.00 L 90.00 74.00 L 84.00 74.00 L 83.00 73.00 L 83.00 64.00 Z
  M 645.00 15.00 L 644.00 16.00 L 644.00 29.00 L 646.00 29.00 L 646.00 25.00 L 647.00 24.00 L 651.00 24.00 L 652.00 25.00 L 653.00 28.00 L 654.00 29.00 L 655.00 29.00 L 655.00 28.00 L 653.00 25.00 L 653.00 24.00 L 655.00 22.00 L 655.00 21.00 L 656.00 20.00 L 656.00 18.00 L 655.00 17.00 L 655.00 16.00 L 654.00 16.00 L 653.00 15.00 Z
  M 65.00 74.00 L 65.00 102.00 L 69.00 102.00 L 69.00 74.00 Z
  M 646.00 18.00 L 648.00 16.00 L 651.00 16.00 L 654.00 18.00 L 654.00 21.00 L 653.00 22.00 L 647.00 22.00 L 646.00 21.00 Z
  M 64.00 62.00 L 64.00 68.00 L 69.00 68.00 L 69.00 62.00 Z
  M 422.00 51.00 L 423.00 50.00 L 424.00 51.00 L 423.00 52.00 Z
  M 277.00 52.00 L 278.00 51.00 L 279.00 52.00 L 278.00 53.00 Z" fill="#FFFFFF" fill-rule="evenodd"/>
</svg>
