<?xml version="1.0" encoding="UTF-8"?>
<svg xmlns="http://www.w3.org/2000/svg" width="700" height="132" viewBox="0 0 700 132" role="img" aria-label="With PerformOS black transparent">
  <title>With PerformOS black transparent</title>
  <path d="M 267.00 44.00 L 267.00 98.00 L 266.00 99.00 L 267.00 99.00 L 268.00 100.00 L 268.00 101.00 L 269.00 100.00 L 277.00 100.00 L 278.00 99.00 L 278.00 63.00 L 279.00 62.00 L 280.00 59.00 L 284.00 55.00 L 285.00 55.00 L 286.00 54.00 L 288.00 54.00 L 289.00 53.00 L 303.00 53.00 L 304.00 54.00 L 304.00 99.00 L 305.00 100.00 L 314.00 100.00 L 314.00 99.00 L 315.00 98.00 L 315.00 97.00 L 314.00 96.00 L 314.00 56.00 L 315.00 55.00 L 314.00 54.00 L 315.00 53.00 L 317.00 53.00 L 318.00 54.00 L 318.00 55.00 L 318.00 54.00 L 319.00 53.00 L 327.00 53.00 L 328.00 54.00 L 328.00 55.00 L 326.00 58.00 L 326.00 60.00 L 325.00 61.00 L 325.00 64.00 L 324.00 65.00 L 324.00 78.00 L 325.00 79.00 L 325.00 82.00 L 326.00 83.00 L 326.00 85.00 L 327.00 86.00 L 327.00 87.00 L 329.00 89.00 L 329.00 90.00 L 328.00 91.00 L 329.00 90.00 L 330.00 91.00 L 330.00 92.00 L 332.00 94.00 L 333.00 94.00 L 335.00 97.00 L 337.00 97.00 L 339.00 99.00 L 340.00 99.00 L 341.00 100.00 L 344.00 100.00 L 345.00 101.00 L 357.00 101.00 L 358.00 100.00 L 361.00 100.00 L 362.00 99.00 L 364.00 99.00 L 366.00 97.00 L 367.00 98.00 L 366.00 97.00 L 368.00 95.00 L 370.00 95.00 L 370.00 94.00 L 371.00 93.00 L 372.00 94.00 L 371.00 93.00 L 371.00 92.00 L 374.00 89.00 L 374.00 88.00 L 376.00 86.00 L 376.00 84.00 L 377.00 83.00 L 377.00 79.00 L 378.00 78.00 L 378.00 72.00 L 380.00 70.00 L 381.00 71.00 L 381.00 72.00 L 380.00 73.00 L 380.00 99.00 L 381.00 100.00 L 390.00 100.00 L 391.00 99.00 L 391.00 64.00 L 393.00 62.00 L 392.00 61.00 L 394.00 58.00 L 395.00 59.00 L 394.00 58.00 L 395.00 57.00 L 396.00 57.00 L 396.00 56.00 L 397.00 55.00 L 398.00 55.00 L 399.00 54.00 L 401.00 54.00 L 402.00 53.00 L 403.00 53.00 L 404.00 54.00 L 405.00 53.00 L 408.00 53.00 L 409.00 52.00 L 409.00 50.00 L 410.00 49.00 L 411.00 49.00 L 412.00 50.00 L 412.00 51.00 L 411.00 52.00 L 412.00 53.00 L 412.00 98.00 L 411.00 99.00 L 412.00 99.00 L 413.00 100.00 L 422.00 100.00 L 423.00 99.00 L 423.00 61.00 L 424.00 60.00 L 424.00 59.00 L 426.00 57.00 L 426.00 56.00 L 428.00 54.00 L 429.00 55.00 L 428.00 54.00 L 431.00 51.00 L 433.00 51.00 L 434.00 50.00 L 437.00 50.00 L 438.00 51.00 L 440.00 51.00 L 441.00 52.00 L 441.00 53.00 L 442.00 52.00 L 445.00 55.00 L 445.00 56.00 L 446.00 57.00 L 446.00 59.00 L 447.00 60.00 L 447.00 98.00 L 448.00 99.00 L 448.00 100.00 L 457.00 100.00 L 458.00 99.00 L 458.00 65.00 L 459.00 64.00 L 458.00 63.00 L 458.00 61.00 L 459.00 60.00 L 459.00 58.00 L 461.00 56.00 L 461.00 55.00 L 466.00 51.00 L 468.00 51.00 L 469.00 50.00 L 470.00 50.00 L 471.00 51.00 L 472.00 51.00 L 473.00 50.00 L 475.00 52.00 L 477.00 52.00 L 478.00 53.00 L 478.00 54.00 L 479.00 54.00 L 480.00 55.00 L 480.00 56.00 L 482.00 58.00 L 482.00 60.00 L 483.00 61.00 L 483.00 62.00 L 482.00 63.00 L 483.00 64.00 L 483.00 98.00 L 482.00 99.00 L 481.00 99.00 L 482.00 99.00 L 483.00 100.00 L 492.00 100.00 L 493.00 99.00 L 494.00 99.00 L 493.00 98.00 L 494.00 97.00 L 494.00 96.00 L 493.00 95.00 L 493.00 64.00 L 494.00 63.00 L 492.00 60.00 L 492.00 54.00 L 489.00 49.00 L 490.00 48.00 L 489.00 49.00 L 486.00 46.00 L 487.00 45.00 L 486.00 46.00 L 485.00 45.00 L 485.00 44.00 L 483.00 44.00 L 482.00 43.00 L 480.00 43.00 L 479.00 42.00 L 468.00 42.00 L 467.00 43.00 L 465.00 43.00 L 464.00 44.00 L 461.00 45.00 L 456.00 50.00 L 455.00 49.00 L 454.00 50.00 L 453.00 50.00 L 452.00 49.00 L 453.00 48.00 L 452.00 48.00 L 451.00 47.00 L 451.00 46.00 L 448.00 45.00 L 447.00 44.00 L 447.00 43.00 L 444.00 43.00 L 443.00 42.00 L 434.00 42.00 L 433.00 43.00 L 431.00 43.00 L 430.00 44.00 L 428.00 44.00 L 428.00 45.00 L 427.00 46.00 L 426.00 46.00 L 425.00 45.00 L 424.00 46.00 L 422.00 43.00 L 413.00 43.00 L 412.00 44.00 L 412.00 48.00 L 411.00 49.00 L 410.00 49.00 L 409.00 48.00 L 409.00 47.00 L 410.00 46.00 L 408.00 43.00 L 402.00 43.00 L 401.00 44.00 L 399.00 44.00 L 397.00 46.00 L 394.00 45.00 L 395.00 45.00 L 396.00 46.00 L 395.00 47.00 L 394.00 47.00 L 392.00 49.00 L 391.00 48.00 L 391.00 45.00 L 392.00 44.00 L 391.00 44.00 L 390.00 43.00 L 381.00 43.00 L 380.00 44.00 L 380.00 70.00 L 379.00 71.00 L 378.00 70.00 L 378.00 65.00 L 377.00 64.00 L 377.00 60.00 L 376.00 59.00 L 376.00 57.00 L 375.00 57.00 L 374.00 56.00 L 374.00 54.00 L 373.00 53.00 L 374.00 52.00 L 373.00 52.00 L 369.00 48.00 L 368.00 48.00 L 365.00 45.00 L 364.00 45.00 L 361.00 43.00 L 358.00 43.00 L 357.00 42.00 L 345.00 42.00 L 344.00 43.00 L 341.00 43.00 L 340.00 44.00 L 339.00 44.00 L 337.00 46.00 L 335.00 46.00 L 330.00 51.00 L 330.00 52.00 L 329.00 53.00 L 327.00 50.00 L 328.00 49.00 L 327.00 48.00 L 328.00 47.00 L 327.00 46.00 L 328.00 45.00 L 327.00 44.00 L 327.00 43.00 L 319.00 43.00 L 318.00 42.00 L 317.00 43.00 L 315.00 43.00 L 314.00 42.00 L 314.00 40.00 L 315.00 39.00 L 314.00 38.00 L 314.00 36.00 L 315.00 35.00 L 316.00 35.00 L 315.00 35.00 L 314.00 34.00 L 316.00 32.00 L 317.00 32.00 L 317.00 31.00 L 318.00 30.00 L 329.00 30.00 L 329.00 22.00 L 328.00 21.00 L 327.00 22.00 L 311.00 22.00 L 305.00 28.00 L 305.00 31.00 L 304.00 32.00 L 304.00 42.00 L 303.00 43.00 L 289.00 43.00 L 288.00 44.00 L 285.00 44.00 L 283.00 46.00 L 282.00 46.00 L 279.00 49.00 L 278.00 48.00 L 278.00 44.00 L 277.00 43.00 L 268.00 43.00 Z
  M 157.00 22.00 L 157.00 23.00 L 158.00 24.00 L 158.00 100.00 L 167.00 100.00 L 168.00 99.00 L 168.00 70.00 L 169.00 69.00 L 196.00 69.00 L 197.00 68.00 L 199.00 68.00 L 200.00 69.00 L 200.00 68.00 L 201.00 67.00 L 202.00 68.00 L 204.00 66.00 L 205.00 66.00 L 205.00 65.00 L 206.00 64.00 L 207.00 64.00 L 209.00 62.00 L 210.00 63.00 L 210.00 61.00 L 212.00 59.00 L 213.00 60.00 L 213.00 66.00 L 212.00 67.00 L 212.00 76.00 L 213.00 77.00 L 213.00 81.00 L 214.00 82.00 L 214.00 84.00 L 215.00 85.00 L 215.00 86.00 L 216.00 87.00 L 217.00 90.00 L 222.00 95.00 L 222.00 96.00 L 223.00 97.00 L 225.00 97.00 L 226.00 98.00 L 227.00 98.00 L 228.00 99.00 L 228.00 100.00 L 232.00 100.00 L 233.00 101.00 L 245.00 101.00 L 246.00 100.00 L 249.00 100.00 L 250.00 99.00 L 252.00 99.00 L 254.00 97.00 L 255.00 98.00 L 254.00 97.00 L 256.00 95.00 L 257.00 95.00 L 258.00 94.00 L 259.00 95.00 L 260.00 94.00 L 259.00 93.00 L 259.00 92.00 L 260.00 91.00 L 261.00 92.00 L 260.00 91.00 L 260.00 90.00 L 262.00 88.00 L 262.00 86.00 L 263.00 85.00 L 263.00 82.00 L 253.00 82.00 L 253.00 83.00 L 252.00 84.00 L 251.00 84.00 L 252.00 85.00 L 250.00 87.00 L 250.00 88.00 L 249.00 89.00 L 248.00 88.00 L 249.00 89.00 L 248.00 90.00 L 247.00 90.00 L 244.00 92.00 L 243.00 91.00 L 240.00 93.00 L 237.00 93.00 L 234.00 91.00 L 232.00 91.00 L 230.00 89.00 L 231.00 88.00 L 230.00 89.00 L 229.00 89.00 L 228.00 88.00 L 228.00 87.00 L 226.00 85.00 L 226.00 84.00 L 224.00 81.00 L 224.00 77.00 L 223.00 76.00 L 223.00 75.00 L 224.00 74.00 L 264.00 74.00 L 264.00 64.00 L 265.00 63.00 L 263.00 60.00 L 263.00 57.00 L 259.00 51.00 L 259.00 50.00 L 260.00 49.00 L 259.00 48.00 L 258.00 49.00 L 257.00 48.00 L 256.00 48.00 L 252.00 44.00 L 250.00 44.00 L 249.00 43.00 L 246.00 43.00 L 245.00 42.00 L 234.00 42.00 L 233.00 43.00 L 229.00 43.00 L 228.00 44.00 L 227.00 44.00 L 225.00 46.00 L 223.00 46.00 L 221.00 48.00 L 221.00 49.00 L 220.00 50.00 L 219.00 50.00 L 219.00 51.00 L 217.00 53.00 L 217.00 54.00 L 216.00 55.00 L 216.00 57.00 L 215.00 58.00 L 214.00 58.00 L 213.00 57.00 L 213.00 56.00 L 214.00 55.00 L 214.00 53.00 L 215.00 52.00 L 215.00 50.00 L 216.00 49.00 L 216.00 43.00 L 215.00 42.00 L 215.00 38.00 L 214.00 37.00 L 214.00 35.00 L 210.00 29.00 L 211.00 28.00 L 210.00 29.00 L 209.00 29.00 L 208.00 28.00 L 208.00 27.00 L 207.00 27.00 L 204.00 24.00 L 203.00 24.00 L 200.00 22.00 L 199.00 23.00 L 198.00 22.00 L 160.00 22.00 L 159.00 21.00 L 158.00 22.00 Z
  M 525.00 20.00 L 524.00 21.00 L 522.00 21.00 L 521.00 22.00 L 519.00 22.00 L 518.00 23.00 L 516.00 23.00 L 515.00 24.00 L 513.00 24.00 L 513.00 25.00 L 512.00 26.00 L 511.00 26.00 L 509.00 28.00 L 507.00 28.00 L 507.00 30.00 L 503.00 34.00 L 503.00 35.00 L 502.00 36.00 L 501.00 35.00 L 501.00 36.00 L 502.00 37.00 L 500.00 39.00 L 500.00 40.00 L 498.00 43.00 L 498.00 46.00 L 497.00 47.00 L 497.00 52.00 L 496.00 53.00 L 496.00 68.00 L 497.00 69.00 L 497.00 74.00 L 498.00 75.00 L 498.00 78.00 L 499.00 79.00 L 499.00 80.00 L 500.00 81.00 L 501.00 84.00 L 503.00 86.00 L 503.00 87.00 L 506.00 90.00 L 506.00 91.00 L 507.00 91.00 L 511.00 95.00 L 512.00 95.00 L 514.00 97.00 L 516.00 97.00 L 517.00 98.00 L 516.00 99.00 L 517.00 98.00 L 518.00 99.00 L 520.00 99.00 L 521.00 100.00 L 525.00 100.00 L 526.00 101.00 L 539.00 101.00 L 540.00 100.00 L 544.00 100.00 L 546.00 98.00 L 548.00 98.00 L 551.00 96.00 L 552.00 97.00 L 553.00 96.00 L 553.00 95.00 L 554.00 94.00 L 555.00 94.00 L 561.00 88.00 L 561.00 87.00 L 563.00 85.00 L 564.00 86.00 L 563.00 85.00 L 563.00 84.00 L 564.00 83.00 L 565.00 84.00 L 565.00 83.00 L 564.00 82.00 L 565.00 81.00 L 566.00 81.00 L 565.00 80.00 L 565.00 79.00 L 566.00 78.00 L 566.00 76.00 L 568.00 74.00 L 568.00 69.00 L 569.00 68.00 L 569.00 50.00 L 568.00 49.00 L 568.00 47.00 L 566.00 44.00 L 566.00 42.00 L 565.00 41.00 L 565.00 40.00 L 564.00 39.00 L 563.00 36.00 L 561.00 34.00 L 561.00 33.00 L 560.00 33.00 L 559.00 32.00 L 559.00 31.00 L 556.00 28.00 L 556.00 27.00 L 555.00 26.00 L 554.00 27.00 L 551.00 24.00 L 550.00 24.00 L 549.00 23.00 L 547.00 23.00 L 544.00 21.00 L 543.00 22.00 L 542.00 21.00 L 540.00 21.00 L 539.00 20.00 L 538.00 21.00 L 536.00 21.00 L 535.00 20.00 L 528.00 20.00 L 527.00 21.00 L 526.00 20.00 Z
  M 524.00 30.00 L 529.00 30.00 L 530.00 29.00 L 536.00 29.00 L 537.00 30.00 L 540.00 30.00 L 541.00 31.00 L 543.00 31.00 L 544.00 32.00 L 545.00 32.00 L 550.00 37.00 L 550.00 38.00 L 551.00 38.00 L 553.00 40.00 L 553.00 41.00 L 556.00 46.00 L 556.00 48.00 L 557.00 49.00 L 557.00 53.00 L 558.00 54.00 L 558.00 67.00 L 557.00 68.00 L 557.00 71.00 L 556.00 72.00 L 556.00 75.00 L 555.00 76.00 L 554.00 75.00 L 555.00 76.00 L 554.00 79.00 L 552.00 81.00 L 552.00 82.00 L 551.00 83.00 L 550.00 82.00 L 551.00 83.00 L 549.00 85.00 L 548.00 84.00 L 549.00 85.00 L 546.00 88.00 L 545.00 88.00 L 544.00 89.00 L 543.00 89.00 L 538.00 92.00 L 537.00 91.00 L 536.00 91.00 L 535.00 92.00 L 532.00 92.00 L 531.00 91.00 L 528.00 91.00 L 527.00 90.00 L 526.00 91.00 L 525.00 91.00 L 524.00 90.00 L 522.00 90.00 L 521.00 89.00 L 518.00 88.00 L 517.00 87.00 L 518.00 86.00 L 516.00 86.00 L 513.00 83.00 L 514.00 82.00 L 511.00 80.00 L 511.00 78.00 L 509.00 76.00 L 509.00 73.00 L 508.00 72.00 L 508.00 70.00 L 507.00 69.00 L 507.00 68.00 L 508.00 67.00 L 507.00 66.00 L 507.00 64.00 L 506.00 63.00 L 506.00 58.00 L 507.00 57.00 L 507.00 55.00 L 508.00 54.00 L 508.00 49.00 L 509.00 48.00 L 509.00 46.00 L 510.00 45.00 L 510.00 43.00 L 513.00 40.00 L 512.00 39.00 L 513.00 38.00 L 514.00 38.00 L 514.00 37.00 L 515.00 36.00 L 516.00 36.00 L 519.00 33.00 L 520.00 33.00 L 522.00 31.00 L 523.00 31.00 Z
  M 580.00 25.00 L 581.00 26.00 L 580.00 27.00 L 579.00 27.00 L 577.00 29.00 L 577.00 30.00 L 574.00 33.00 L 574.00 34.00 L 573.00 35.00 L 573.00 39.00 L 572.00 40.00 L 572.00 43.00 L 573.00 44.00 L 573.00 46.00 L 572.00 47.00 L 573.00 48.00 L 573.00 49.00 L 575.00 51.00 L 576.00 54.00 L 579.00 57.00 L 578.00 58.00 L 579.00 57.00 L 580.00 58.00 L 583.00 59.00 L 584.00 60.00 L 583.00 61.00 L 584.00 60.00 L 585.00 60.00 L 588.00 62.00 L 592.00 62.00 L 593.00 63.00 L 596.00 63.00 L 597.00 64.00 L 599.00 64.00 L 600.00 65.00 L 601.00 64.00 L 603.00 66.00 L 608.00 66.00 L 609.00 67.00 L 612.00 67.00 L 613.00 68.00 L 615.00 68.00 L 617.00 70.00 L 618.00 70.00 L 622.00 74.00 L 622.00 76.00 L 623.00 77.00 L 623.00 80.00 L 622.00 81.00 L 622.00 83.00 L 619.00 86.00 L 619.00 87.00 L 618.00 88.00 L 617.00 88.00 L 614.00 90.00 L 611.00 90.00 L 610.00 91.00 L 606.00 91.00 L 605.00 92.00 L 600.00 92.00 L 599.00 91.00 L 595.00 91.00 L 594.00 90.00 L 592.00 90.00 L 591.00 89.00 L 590.00 89.00 L 588.00 87.00 L 587.00 87.00 L 584.00 84.00 L 584.00 83.00 L 582.00 81.00 L 582.00 79.00 L 581.00 78.00 L 582.00 77.00 L 582.00 76.00 L 581.00 77.00 L 580.00 76.00 L 580.00 74.00 L 579.00 75.00 L 572.00 75.00 L 571.00 74.00 L 569.00 76.00 L 569.00 77.00 L 570.00 78.00 L 570.00 81.00 L 571.00 82.00 L 570.00 83.00 L 572.00 85.00 L 572.00 86.00 L 574.00 88.00 L 574.00 89.00 L 577.00 92.00 L 577.00 93.00 L 578.00 93.00 L 581.00 96.00 L 582.00 96.00 L 583.00 97.00 L 585.00 97.00 L 587.00 99.00 L 589.00 99.00 L 590.00 100.00 L 594.00 100.00 L 595.00 101.00 L 610.00 101.00 L 611.00 100.00 L 616.00 100.00 L 618.00 98.00 L 620.00 98.00 L 621.00 97.00 L 624.00 96.00 L 627.00 93.00 L 628.00 93.00 L 628.00 92.00 L 629.00 91.00 L 630.00 92.00 L 629.00 91.00 L 631.00 89.00 L 631.00 87.00 L 632.00 86.00 L 632.00 84.00 L 633.00 83.00 L 633.00 80.00 L 634.00 79.00 L 634.00 78.00 L 633.00 77.00 L 633.00 72.00 L 632.00 71.00 L 632.00 69.00 L 631.00 68.00 L 631.00 67.00 L 629.00 65.00 L 630.00 64.00 L 629.00 65.00 L 627.00 63.00 L 627.00 62.00 L 626.00 62.00 L 625.00 61.00 L 622.00 60.00 L 620.00 58.00 L 618.00 58.00 L 617.00 57.00 L 614.00 57.00 L 613.00 56.00 L 609.00 56.00 L 608.00 55.00 L 604.00 55.00 L 603.00 54.00 L 600.00 54.00 L 599.00 53.00 L 597.00 53.00 L 596.00 52.00 L 594.00 52.00 L 593.00 51.00 L 591.00 51.00 L 590.00 50.00 L 587.00 49.00 L 586.00 48.00 L 586.00 47.00 L 584.00 45.00 L 584.00 42.00 L 585.00 41.00 L 584.00 40.00 L 584.00 39.00 L 586.00 37.00 L 585.00 36.00 L 587.00 34.00 L 588.00 35.00 L 589.00 35.00 L 590.00 34.00 L 590.00 33.00 L 589.00 32.00 L 592.00 30.00 L 596.00 30.00 L 597.00 29.00 L 604.00 29.00 L 605.00 30.00 L 609.00 30.00 L 612.00 32.00 L 611.00 33.00 L 612.00 33.00 L 613.00 32.00 L 614.00 33.00 L 614.00 35.00 L 615.00 34.00 L 617.00 36.00 L 617.00 37.00 L 618.00 38.00 L 618.00 40.00 L 619.00 41.00 L 619.00 42.00 L 621.00 44.00 L 622.00 44.00 L 623.00 43.00 L 624.00 44.00 L 630.00 44.00 L 631.00 43.00 L 631.00 41.00 L 630.00 40.00 L 630.00 37.00 L 629.00 36.00 L 629.00 34.00 L 628.00 33.00 L 628.00 32.00 L 625.00 29.00 L 625.00 28.00 L 624.00 28.00 L 622.00 26.00 L 622.00 25.00 L 620.00 25.00 L 618.00 23.00 L 617.00 23.00 L 616.00 22.00 L 612.00 22.00 L 611.00 21.00 L 611.00 20.00 L 610.00 21.00 L 606.00 21.00 L 605.00 20.00 L 600.00 20.00 L 599.00 19.00 L 598.00 19.00 L 599.00 19.00 L 600.00 20.00 L 599.00 21.00 L 596.00 21.00 L 595.00 20.00 L 594.00 20.00 L 591.00 22.00 L 590.00 21.00 L 587.00 23.00 L 585.00 23.00 L 584.00 24.00 L 583.00 24.00 L 581.00 26.00 Z
  M 348.00 50.00 L 349.00 50.00 L 350.00 51.00 L 351.00 51.00 L 352.00 50.00 L 353.00 51.00 L 354.00 50.00 L 355.00 51.00 L 357.00 51.00 L 359.00 53.00 L 360.00 53.00 L 361.00 54.00 L 360.00 55.00 L 361.00 54.00 L 365.00 59.00 L 365.00 60.00 L 366.00 61.00 L 366.00 64.00 L 367.00 65.00 L 367.00 77.00 L 366.00 78.00 L 366.00 82.00 L 365.00 83.00 L 365.00 84.00 L 362.00 87.00 L 362.00 88.00 L 360.00 90.00 L 359.00 90.00 L 356.00 92.00 L 355.00 91.00 L 354.00 92.00 L 352.00 92.00 L 351.00 93.00 L 349.00 93.00 L 348.00 92.00 L 346.00 92.00 L 345.00 91.00 L 342.00 90.00 L 340.00 88.00 L 340.00 87.00 L 337.00 84.00 L 337.00 82.00 L 336.00 81.00 L 336.00 78.00 L 335.00 77.00 L 335.00 73.00 L 334.00 72.00 L 335.00 71.00 L 335.00 65.00 L 336.00 64.00 L 336.00 61.00 L 337.00 60.00 L 337.00 59.00 L 339.00 57.00 L 339.00 56.00 L 342.00 53.00 L 344.00 53.00 L 346.00 51.00 L 347.00 51.00 Z
  M 167.00 31.00 L 168.00 30.00 L 192.00 30.00 L 193.00 31.00 L 195.00 31.00 L 196.00 32.00 L 197.00 32.00 L 199.00 34.00 L 200.00 34.00 L 204.00 39.00 L 204.00 42.00 L 205.00 43.00 L 205.00 48.00 L 204.00 49.00 L 203.00 49.00 L 204.00 50.00 L 204.00 51.00 L 203.00 52.00 L 202.00 55.00 L 197.00 59.00 L 194.00 58.00 L 195.00 58.00 L 196.00 59.00 L 195.00 60.00 L 193.00 60.00 L 192.00 59.00 L 191.00 60.00 L 169.00 60.00 L 168.00 59.00 L 168.00 32.00 Z
  M 7.00 60.00 L 6.00 61.00 L 8.00 63.00 L 8.00 65.00 L 9.00 66.00 L 9.00 69.00 L 10.00 70.00 L 9.00 71.00 L 9.00 72.00 L 12.00 77.00 L 12.00 78.00 L 11.00 79.00 L 13.00 81.00 L 13.00 84.00 L 12.00 85.00 L 13.00 84.00 L 14.00 85.00 L 14.00 86.00 L 13.00 87.00 L 14.00 87.00 L 15.00 88.00 L 15.00 91.00 L 16.00 92.00 L 16.00 95.00 L 17.00 96.00 L 16.00 97.00 L 17.00 98.00 L 18.00 101.00 L 20.00 103.00 L 19.00 102.00 L 20.00 101.00 L 23.00 101.00 L 25.00 103.00 L 24.00 102.00 L 24.00 101.00 L 25.00 100.00 L 25.00 97.00 L 26.00 96.00 L 26.00 93.00 L 27.00 92.00 L 27.00 90.00 L 28.00 89.00 L 28.00 86.00 L 29.00 85.00 L 29.00 82.00 L 30.00 81.00 L 30.00 78.00 L 31.00 77.00 L 31.00 74.00 L 32.00 73.00 L 32.00 71.00 L 33.00 70.00 L 34.00 71.00 L 34.00 73.00 L 35.00 74.00 L 35.00 76.00 L 33.00 78.00 L 34.00 78.00 L 34.00 77.00 L 35.00 76.00 L 36.00 77.00 L 36.00 81.00 L 37.00 82.00 L 37.00 83.00 L 36.00 84.00 L 37.00 84.00 L 38.00 85.00 L 38.00 87.00 L 37.00 88.00 L 38.00 88.00 L 39.00 89.00 L 39.00 92.00 L 40.00 93.00 L 40.00 97.00 L 41.00 98.00 L 41.00 100.00 L 42.00 101.00 L 42.00 102.00 L 41.00 103.00 L 44.00 101.00 L 47.00 101.00 L 49.00 103.00 L 48.00 102.00 L 48.00 100.00 L 49.00 99.00 L 49.00 96.00 L 50.00 95.00 L 50.00 92.00 L 51.00 91.00 L 51.00 88.00 L 52.00 87.00 L 52.00 84.00 L 53.00 83.00 L 53.00 80.00 L 54.00 79.00 L 54.00 77.00 L 55.00 76.00 L 55.00 74.00 L 56.00 73.00 L 56.00 70.00 L 57.00 69.00 L 57.00 66.00 L 58.00 65.00 L 58.00 63.00 L 60.00 60.00 L 59.00 61.00 L 58.00 61.00 L 57.00 60.00 L 57.00 59.00 L 57.00 60.00 L 56.00 61.00 L 55.00 61.00 L 54.00 60.00 L 54.00 59.00 L 54.00 60.00 L 53.00 61.00 L 53.00 63.00 L 51.00 65.00 L 52.00 66.00 L 52.00 67.00 L 51.00 68.00 L 51.00 72.00 L 50.00 73.00 L 50.00 75.00 L 49.00 76.00 L 49.00 80.00 L 48.00 81.00 L 48.00 83.00 L 46.00 86.00 L 46.00 91.00 L 45.00 92.00 L 43.00 89.00 L 43.00 88.00 L 44.00 87.00 L 42.00 85.00 L 42.00 83.00 L 41.00 82.00 L 41.00 79.00 L 40.00 78.00 L 40.00 75.00 L 39.00 74.00 L 39.00 72.00 L 38.00 71.00 L 38.00 67.00 L 37.00 66.00 L 37.00 63.00 L 36.00 62.00 L 37.00 61.00 L 36.00 61.00 L 35.00 60.00 L 34.00 60.00 L 33.00 61.00 L 29.00 61.00 L 28.00 60.00 L 29.00 59.00 L 28.00 60.00 L 27.00 60.00 L 28.00 60.00 L 30.00 62.00 L 30.00 63.00 L 29.00 64.00 L 29.00 66.00 L 28.00 67.00 L 28.00 71.00 L 27.00 72.00 L 27.00 74.00 L 26.00 75.00 L 26.00 79.00 L 25.00 80.00 L 25.00 82.00 L 24.00 83.00 L 24.00 85.00 L 23.00 86.00 L 23.00 90.00 L 22.00 91.00 L 21.00 90.00 L 21.00 89.00 L 19.00 87.00 L 19.00 84.00 L 18.00 83.00 L 18.00 80.00 L 17.00 79.00 L 17.00 75.00 L 16.00 74.00 L 16.00 72.00 L 15.00 71.00 L 15.00 68.00 L 14.00 67.00 L 14.00 66.00 L 15.00 65.00 L 14.00 64.00 L 13.00 61.00 L 10.00 61.00 L 9.00 60.00 Z
  M 657.00 8.00 L 656.00 9.00 L 655.00 9.00 L 654.00 8.00 L 652.00 8.00 L 651.00 7.00 L 648.00 7.00 L 647.00 8.00 L 643.00 8.00 L 642.00 9.00 L 639.00 10.00 L 636.00 13.00 L 636.00 14.00 L 635.00 15.00 L 635.00 18.00 L 633.00 20.00 L 634.00 21.00 L 634.00 24.00 L 635.00 25.00 L 635.00 28.00 L 636.00 29.00 L 636.00 30.00 L 640.00 34.00 L 641.00 34.00 L 642.00 35.00 L 645.00 35.00 L 646.00 36.00 L 648.00 36.00 L 649.00 37.00 L 652.00 35.00 L 655.00 35.00 L 656.00 34.00 L 657.00 34.00 L 661.00 30.00 L 661.00 29.00 L 663.00 27.00 L 663.00 24.00 L 664.00 23.00 L 664.00 20.00 L 663.00 19.00 L 663.00 16.00 L 662.00 15.00 L 662.00 14.00 L 657.00 9.00 Z
  M 96.00 60.00 L 96.00 97.00 L 95.00 98.00 L 94.00 98.00 L 95.00 98.00 L 96.00 99.00 L 95.00 100.00 L 96.00 101.00 L 99.00 101.00 L 100.00 102.00 L 101.00 101.00 L 101.00 86.00 L 102.00 85.00 L 101.00 84.00 L 101.00 82.00 L 102.00 81.00 L 102.00 80.00 L 105.00 77.00 L 106.00 77.00 L 107.00 76.00 L 108.00 77.00 L 109.00 76.00 L 112.00 76.00 L 113.00 77.00 L 112.00 78.00 L 113.00 79.00 L 113.00 80.00 L 113.00 79.00 L 114.00 78.00 L 115.00 79.00 L 115.00 81.00 L 116.00 82.00 L 116.00 84.00 L 115.00 85.00 L 116.00 86.00 L 116.00 99.00 L 114.00 102.00 L 115.00 101.00 L 116.00 102.00 L 117.00 101.00 L 118.00 102.00 L 120.00 102.00 L 121.00 101.00 L 122.00 101.00 L 121.00 100.00 L 122.00 99.00 L 121.00 98.00 L 121.00 88.00 L 122.00 87.00 L 121.00 86.00 L 121.00 81.00 L 120.00 80.00 L 120.00 77.00 L 118.00 75.00 L 119.00 74.00 L 118.00 74.00 L 115.00 72.00 L 105.00 72.00 L 104.00 73.00 L 103.00 73.00 L 101.00 71.00 L 101.00 61.00 L 97.00 61.00 Z
  M 224.00 62.00 L 225.00 61.00 L 225.00 60.00 L 226.00 59.00 L 227.00 56.00 L 230.00 53.00 L 232.00 53.00 L 234.00 51.00 L 235.00 51.00 L 236.00 50.00 L 238.00 50.00 L 240.00 52.00 L 243.00 50.00 L 244.00 51.00 L 247.00 52.00 L 250.00 55.00 L 250.00 56.00 L 251.00 56.00 L 252.00 57.00 L 252.00 58.00 L 251.00 59.00 L 252.00 59.00 L 253.00 60.00 L 253.00 61.00 L 252.00 62.00 L 253.00 62.00 L 254.00 63.00 L 253.00 64.00 L 254.00 65.00 L 253.00 66.00 L 251.00 66.00 L 250.00 67.00 L 225.00 67.00 L 224.00 66.00 L 224.00 65.00 L 225.00 64.00 L 224.00 63.00 Z
  M 78.00 62.00 L 77.00 63.00 L 78.00 64.00 L 78.00 71.00 L 75.00 73.00 L 74.00 73.00 L 73.00 72.00 L 73.00 77.00 L 76.00 77.00 L 78.00 79.00 L 78.00 99.00 L 80.00 101.00 L 82.00 101.00 L 83.00 102.00 L 82.00 103.00 L 84.00 101.00 L 86.00 101.00 L 87.00 102.00 L 88.00 101.00 L 89.00 102.00 L 90.00 101.00 L 91.00 101.00 L 90.00 100.00 L 90.00 97.00 L 85.00 97.00 L 83.00 95.00 L 83.00 78.00 L 84.00 77.00 L 89.00 77.00 L 89.00 74.00 L 90.00 73.00 L 89.00 72.00 L 88.00 73.00 L 86.00 73.00 L 85.00 72.00 L 84.00 73.00 L 83.00 72.00 L 83.00 63.00 L 82.00 62.00 L 81.00 62.00 L 80.00 63.00 L 79.00 63.00 Z
  M 63.00 72.00 L 63.00 99.00 L 62.00 100.00 L 62.00 101.00 L 63.00 102.00 L 64.00 101.00 L 66.00 101.00 L 67.00 102.00 L 68.00 101.00 L 69.00 101.00 L 68.00 100.00 L 68.00 77.00 L 69.00 76.00 L 70.00 76.00 L 69.00 76.00 L 68.00 75.00 L 69.00 74.00 L 69.00 73.00 L 68.00 72.00 L 67.00 73.00 L 64.00 73.00 Z
  M 644.00 11.00 L 645.00 12.00 L 642.00 15.00 L 643.00 16.00 L 643.00 27.00 L 642.00 28.00 L 644.00 30.00 L 643.00 31.00 L 642.00 31.00 L 640.00 29.00 L 640.00 27.00 L 639.00 27.00 L 637.00 24.00 L 637.00 19.00 L 639.00 17.00 L 638.00 16.00 L 643.00 11.00 Z
  M 658.00 15.00 L 659.00 16.00 L 659.00 18.00 L 661.00 20.00 L 661.00 22.00 L 659.00 25.00 L 659.00 27.00 L 658.00 28.00 L 658.00 29.00 L 657.00 30.00 L 656.00 30.00 L 655.00 29.00 L 656.00 28.00 L 653.00 25.00 L 653.00 23.00 L 656.00 20.00 L 656.00 17.00 Z
  M 647.00 23.00 L 648.00 23.00 L 651.00 26.00 L 651.00 27.00 L 653.00 30.00 L 652.00 31.00 L 651.00 31.00 L 650.00 30.00 L 650.00 29.00 L 650.00 30.00 L 652.00 32.00 L 651.00 33.00 L 650.00 33.00 L 649.00 32.00 L 648.00 33.00 L 646.00 33.00 L 643.00 31.00 L 646.00 29.00 L 646.00 24.00 Z
  M 68.00 60.00 L 66.00 60.00 L 65.00 61.00 L 62.00 61.00 L 61.00 62.00 L 62.00 61.00 L 63.00 62.00 L 63.00 68.00 L 64.00 67.00 L 67.00 67.00 L 68.00 68.00 L 68.00 67.00 L 69.00 66.00 L 68.00 65.00 L 68.00 62.00 L 69.00 61.00 Z
  M 644.00 11.00 L 645.00 10.00 L 646.00 10.00 L 647.00 11.00 L 648.00 10.00 L 652.00 10.00 L 653.00 11.00 L 651.00 14.00 L 650.00 13.00 L 648.00 13.00 L 647.00 14.00 L 646.00 14.00 Z
  M 646.00 17.00 L 647.00 16.00 L 648.00 17.00 L 649.00 16.00 L 651.00 16.00 L 652.00 17.00 L 652.00 19.00 L 650.00 21.00 L 647.00 21.00 L 646.00 20.00 L 647.00 19.00 L 648.00 19.00 L 647.00 19.00 L 646.00 18.00 Z
  M 652.00 12.00 L 653.00 11.00 L 654.00 11.00 L 658.00 15.00 L 656.00 17.00 L 655.00 16.00 L 655.00 15.00 L 652.00 13.00 Z
  M 453.00 51.00 L 455.00 49.00 L 456.00 50.00 L 456.00 51.00 L 455.00 52.00 L 454.00 52.00 Z
  M 212.00 58.00 L 213.00 57.00 L 214.00 58.00 L 214.00 59.00 L 213.00 60.00 L 212.00 59.00 Z
  M 587.00 34.00 L 588.00 33.00 L 589.00 33.00 L 590.00 34.00 L 589.00 35.00 L 588.00 35.00 Z
  M 112.00 78.00 L 113.00 77.00 L 114.00 78.00 L 113.00 79.00 Z
  M 101.00 73.00 L 102.00 72.00 L 103.00 73.00 L 102.00 74.00 Z
  M 20.00 91.00 L 21.00 90.00 L 22.00 91.00 L 21.00 92.00 Z
  M 327.00 53.00 L 328.00 52.00 L 329.00 53.00 L 328.00 54.00 Z
  M 422.00 48.00 L 423.00 47.00 L 424.00 48.00 L 423.00 49.00 Z
  M 423.00 47.00 L 424.00 46.00 L 425.00 47.00 L 424.00 48.00 Z
  M 424.00 46.00 L 425.00 45.00 L 426.00 46.00 L 425.00 47.00 Z
  M 258.00 94.00 L 259.00 93.00 L 260.00 94.00 L 259.00 95.00 Z
  M 239.00 51.00 L 240.00 50.00 L 241.00 51.00 L 240.00 52.00 Z
  M 258.00 49.00 L 259.00 48.00 L 260.00 49.00 L 259.00 50.00 Z
  M 512.00 82.00 L 513.00 81.00 L 514.00 82.00 L 513.00 83.00 Z
  M 554.00 27.00 L 555.00 26.00 L 556.00 27.00 L 555.00 28.00 Z
  M 652.00 31.00 L 653.00 30.00 L 654.00 31.00 L 653.00 32.00 Z
  M 653.00 30.00 L 654.00 29.00 L 655.00 30.00 L 654.00 31.00 Z" fill="#000000" fill-rule="evenodd"/>
</svg>
