<svg viewBox="0 0 400 300" xmlns="http://www.w3.org/2000/svg">
  <rect width="400" height="300" fill="#fafaf5"/>
  <path d="M 60 150 Q 80 80 180 70 Q 280 60 320 100 Q 360 145 320 200 Q 270 245 180 230 Q 90 215 60 150 Z" fill="none" stroke="#B5651D" stroke-width="1.4"/>
  <path d="M 50 150 Q 70 70 180 58 Q 290 48 335 95 Q 380 145 335 215 Q 280 260 180 245 Q 80 225 50 150 Z" fill="none" stroke="#B5651D" stroke-width="1.2"/>
  <path d="M 40 150 Q 60 60 180 46 Q 305 36 350 90 Q 400 145 355 230 Q 295 280 180 265 Q 70 240 40 150 Z" fill="none" stroke="#B5651D" stroke-width="1.2"/>
  <polygon points="195,148 191,156 199,156" fill="#000"/>
  <text x="202" y="158" font-family="Arial, sans-serif" font-size="11" fill="#000">2,140 m</text>
  <text x="170" y="180" font-family="Arial, sans-serif" font-size="10" fill="#888">(plateau interior, no contours)</text>
</svg>