<svg viewBox="0 0 600 500" xmlns="http://www.w3.org/2000/svg">
  <rect width="600" height="500" fill="#fafaf5"/>
  <text x="20" y="25" font-family="Arial, sans-serif" font-size="14" font-weight="bold" fill="#000">Map view (1:25,000, 10 m contours)</text>
  <path d="M 30 90 Q 200 60 380 90 Q 480 105 540 100" fill="none" stroke="#B5651D" stroke-width="1.2"/>
  <path d="M 30 110 Q 200 80 380 110 Q 480 125 540 120" fill="none" stroke="#B5651D" stroke-width="1.2"/>
  <path d="M 30 130 Q 200 100 380 130 Q 480 145 540 140" fill="none" stroke="#B5651D" stroke-width="1.2"/>
  <path d="M 30 145 Q 200 118 380 145 Q 480 160 540 155" fill="none" stroke="#B5651D" stroke-width="1.2"/>
  <path d="M 30 155 Q 200 130 380 155 Q 480 170 540 165" fill="none" stroke="#B5651D" stroke-width="1.2"/>
  <path d="M 30 165 Q 200 142 380 165 Q 480 180 540 175" fill="none" stroke="#B5651D" stroke-width="1.2"/>
  <path d="M 30 175 Q 200 154 380 175 Q 480 190 540 185" fill="none" stroke="#B5651D" stroke-width="1.2"/>
  <path d="M 30 185 Q 200 165 380 185 Q 480 200 540 195" fill="none" stroke="#B5651D" stroke-width="1.2"/>
  <path d="M 30 195 Q 200 175 380 195 Q 480 210 540 205" fill="none" stroke="#B5651D" stroke-width="1.2"/>
  <path d="M 30 205 Q 200 185 380 205 Q 480 220 540 215" fill="none" stroke="#B5651D" stroke-width="1.2"/>
  <path d="M 30 215 Q 200 195 380 215 Q 480 230 540 225" fill="none" stroke="#B5651D" stroke-width="1.2"/>
  <line x1="60" y1="220" x2="540" y2="155" stroke="#000" stroke-width="2" stroke-dasharray="6,3"/>
  <circle cx="60" cy="220" r="4" fill="#000"/>
  <text x="48" y="240" font-family="Arial, sans-serif" font-size="14" font-weight="bold" fill="#000">X</text>
  <text x="40" y="255" font-family="Arial, sans-serif" font-size="9" fill="#000">2,200 m</text>
  <circle cx="540" cy="155" r="4" fill="#000"/>
  <text x="548" y="148" font-family="Arial, sans-serif" font-size="14" font-weight="bold" fill="#000">Y</text>
  <text x="548" y="135" font-family="Arial, sans-serif" font-size="9" fill="#000">2,300 m</text>
  <line x1="60" y1="280" x2="540" y2="280" stroke="#000" stroke-width="1.5"/>
  <line x1="60" y1="280" x2="60" y2="450" stroke="#000" stroke-width="1.5"/>
  <text x="20" y="310" font-family="Arial, sans-serif" font-size="14" font-weight="bold" fill="#000">Side profile</text>
  <text x="20" y="325" font-family="Arial, sans-serif" font-size="10" fill="#444">Vertical exaggeration: 2:1</text>
  <line x1="60" y1="430" x2="540" y2="430" stroke="#bbb" stroke-width="0.5"/>
  <text x="40" y="434" font-family="Arial, sans-serif" font-size="9" fill="#444">2,200</text>
  <line x1="60" y1="410" x2="540" y2="410" stroke="#bbb" stroke-width="0.5"/>
  <text x="40" y="414" font-family="Arial, sans-serif" font-size="9" fill="#444">2,220</text>
  <line x1="60" y1="390" x2="540" y2="390" stroke="#bbb" stroke-width="0.5"/>
  <text x="40" y="394" font-family="Arial, sans-serif" font-size="9" fill="#444">2,240</text>
  <line x1="60" y1="370" x2="540" y2="370" stroke="#bbb" stroke-width="0.5"/>
  <text x="40" y="374" font-family="Arial, sans-serif" font-size="9" fill="#444">2,260</text>
  <line x1="60" y1="350" x2="540" y2="350" stroke="#bbb" stroke-width="0.5"/>
  <text x="40" y="354" font-family="Arial, sans-serif" font-size="9" fill="#444">2,280</text>
  <line x1="60" y1="330" x2="540" y2="330" stroke="#bbb" stroke-width="0.5"/>
  <text x="40" y="334" font-family="Arial, sans-serif" font-size="9" fill="#444">2,300</text>
  <path d="M 60 430 Q 100 425 140 418 Q 180 410 220 401 Q 260 390 300 379 Q 340 367 380 357 Q 420 347 460 342 Q 500 338 540 330" fill="none" stroke="#1e88e5" stroke-width="2"/>
  <circle cx="60" cy="430" r="3" fill="#1e88e5"/>
  <circle cx="103" cy="425" r="3" fill="#1e88e5"/>
  <circle cx="146" cy="418" r="3" fill="#1e88e5"/>
  <circle cx="200" cy="406" r="3" fill="#1e88e5"/>
  <circle cx="253" cy="394" r="3" fill="#1e88e5"/>
  <circle cx="300" cy="380" r="3" fill="#1e88e5"/>
  <circle cx="350" cy="362" r="3" fill="#1e88e5"/>
  <circle cx="400" cy="350" r="3" fill="#1e88e5"/>
  <circle cx="450" cy="343" r="3" fill="#1e88e5"/>
  <circle cx="500" cy="338" r="3" fill="#1e88e5"/>
  <circle cx="540" cy="330" r="3" fill="#1e88e5"/>
  <text x="55" y="463" font-family="Arial, sans-serif" font-size="11" font-weight="bold" fill="#000">X</text>
  <text x="535" y="463" font-family="Arial, sans-serif" font-size="11" font-weight="bold" fill="#000">Y</text>
  <text x="270" y="478" font-family="Arial, sans-serif" font-size="10" fill="#444">Distance (cm on the map): 0 ........... 8.4</text>
  <text x="20" y="495" font-family="Arial, sans-serif" font-size="10" fill="#444">Read steepness from contour spacing on the section line above; not from the visual angle here.</text>
</svg>