<svg viewBox="0 0 720 600" xmlns="http://www.w3.org/2000/svg">
  <rect width="720" height="600" fill="#fafaf5"/>
  <text x="20" y="28" font-family="Arial, sans-serif" font-size="14" font-weight="bold" fill="#000">Section C2.4 contour-snippet sheet</text>
  <text x="20" y="45" font-family="Arial, sans-serif" font-size="10" fill="#444">Eight snippets to name (1 to 8). Two stretch-task snippets (9 and 10). Each snippet is at 1:25,000 with 10 m contour interval.</text>
  <rect x="20" y="60" width="160" height="160" fill="#fff" stroke="#888" stroke-width="0.6"/>
  <text x="100" y="78" font-family="Arial, sans-serif" font-size="13" font-weight="bold" fill="#000" text-anchor="middle">1</text>
  <circle cx="100" cy="145" r="55" fill="none" stroke="#B5651D" stroke-width="1"/>
  <circle cx="100" cy="145" r="44" fill="none" stroke="#B5651D" stroke-width="1"/>
  <circle cx="100" cy="145" r="33" fill="none" stroke="#B5651D" stroke-width="1"/>
  <circle cx="100" cy="145" r="22" fill="none" stroke="#B5651D" stroke-width="1"/>
  <circle cx="100" cy="145" r="11" fill="none" stroke="#B5651D" stroke-width="1"/>
  <polygon points="100,141 96,148 104,148" fill="#000"/>
  <text x="107" y="151" font-family="Arial, sans-serif" font-size="8" fill="#000">2,847</text>
  <text x="100" y="212" font-family="Arial, sans-serif" font-size="9" fill="#444" text-anchor="middle">_____________</text>
  <rect x="195" y="60" width="160" height="160" fill="#fff" stroke="#888" stroke-width="0.6"/>
  <text x="275" y="78" font-family="Arial, sans-serif" font-size="13" font-weight="bold" fill="#000" text-anchor="middle">2</text>
  <path d="M 210 100 Q 250 130 275 145 Q 300 130 340 100" fill="none" stroke="#B5651D" stroke-width="1"/>
  <path d="M 210 115 Q 250 145 275 160 Q 300 145 340 115" fill="none" stroke="#B5651D" stroke-width="1"/>
  <path d="M 210 130 Q 250 160 275 175 Q 300 160 340 130" fill="none" stroke="#B5651D" stroke-width="1"/>
  <path d="M 210 145 Q 250 175 275 190 Q 300 175 340 145" fill="none" stroke="#B5651D" stroke-width="1"/>
  <path d="M 210 160 Q 250 190 275 205 Q 300 190 340 160" fill="none" stroke="#B5651D" stroke-width="1"/>
  <path d="M 275 145 Q 270 170 275 200" fill="none" stroke="#1e88e5" stroke-width="1.4"/>
  <text x="275" y="212" font-family="Arial, sans-serif" font-size="9" fill="#444" text-anchor="middle">_____________</text>
  <rect x="370" y="60" width="160" height="160" fill="#fff" stroke="#888" stroke-width="0.6"/>
  <text x="450" y="78" font-family="Arial, sans-serif" font-size="13" font-weight="bold" fill="#000" text-anchor="middle">3</text>
  <ellipse cx="450" cy="98" rx="45" ry="20" fill="none" stroke="#B5651D" stroke-width="1"/>
  <polygon points="450,98 446,104 454,104" fill="#000"/>
  <text x="458" y="103" font-family="Arial, sans-serif" font-size="7" fill="#000">2,380</text>
  <path d="M 410 120 Q 430 130 450 175 Q 470 130 490 120" fill="none" stroke="#B5651D" stroke-width="1"/>
  <path d="M 405 140 Q 425 150 450 195 Q 475 150 495 140" fill="none" stroke="#B5651D" stroke-width="1"/>
  <path d="M 400 160 Q 420 170 450 205 Q 480 170 500 160" fill="none" stroke="#B5651D" stroke-width="1"/>
  <text x="450" y="212" font-family="Arial, sans-serif" font-size="9" fill="#444" text-anchor="middle">_____________</text>
  <rect x="545" y="60" width="160" height="160" fill="#fff" stroke="#888" stroke-width="0.6"/>
  <text x="625" y="78" font-family="Arial, sans-serif" font-size="13" font-weight="bold" fill="#000" text-anchor="middle">4</text>
  <ellipse cx="625" cy="145" rx="65" ry="50" fill="none" stroke="#B5651D" stroke-width="1"/>
  <ellipse cx="625" cy="145" rx="48" ry="36" fill="none" stroke="#B5651D" stroke-width="1"/>
  <ellipse cx="625" cy="145" rx="30" ry="22" fill="none" stroke="#B5651D" stroke-width="1"/>
  <polygon points="625,142 622,148 628,148" fill="#000"/>
  <text x="632" y="150" font-family="Arial, sans-serif" font-size="8" fill="#000">2,210</text>
  <text x="625" y="212" font-family="Arial, sans-serif" font-size="9" fill="#444" text-anchor="middle">_____________</text>
  <rect x="20" y="240" width="160" height="160" fill="#fff" stroke="#888" stroke-width="0.6"/>
  <text x="100" y="258" font-family="Arial, sans-serif" font-size="13" font-weight="bold" fill="#000" text-anchor="middle">5</text>
  <path d="M 30 280 L 100 365 L 170 280" fill="none" stroke="#B5651D" stroke-width="1"/>
  <path d="M 30 295 L 100 375 L 170 295" fill="none" stroke="#B5651D" stroke-width="1"/>
  <path d="M 30 310 L 100 385 L 170 310" fill="none" stroke="#B5651D" stroke-width="1"/>
  <path d="M 30 325 L 100 395 L 170 325" fill="none" stroke="#B5651D" stroke-width="1"/>
  <path d="M 100 365 Q 102 380 100 395" fill="none" stroke="#1e88e5" stroke-width="1.4"/>
  <text x="100" y="392" font-family="Arial, sans-serif" font-size="9" fill="#444" text-anchor="middle">_____________</text>
  <rect x="195" y="240" width="160" height="160" fill="#fff" stroke="#888" stroke-width="0.6"/>
  <text x="275" y="258" font-family="Arial, sans-serif" font-size="13" font-weight="bold" fill="#000" text-anchor="middle">6</text>
  <path d="M 210 280 Q 240 295 275 290 Q 310 295 340 280" fill="none" stroke="#B5651D" stroke-width="1"/>
  <path d="M 210 300 Q 240 315 275 310 Q 310 315 340 300" fill="none" stroke="#B5651D" stroke-width="1"/>
  <path d="M 210 320 Q 240 305 275 310 Q 310 305 340 320" fill="none" stroke="#B5651D" stroke-width="1"/>
  <path d="M 210 340 Q 240 325 275 330 Q 310 325 340 340" fill="none" stroke="#B5651D" stroke-width="1"/>
  <path d="M 210 360 Q 240 345 275 350 Q 310 345 340 360" fill="none" stroke="#B5651D" stroke-width="1"/>
  <polygon points="240,303 237,311 243,311" fill="#000"/>
  <polygon points="310,303 307,311 313,311" fill="#000"/>
  <text x="275" y="392" font-family="Arial, sans-serif" font-size="9" fill="#444" text-anchor="middle">_____________</text>
  <rect x="370" y="240" width="160" height="160" fill="#fff" stroke="#888" stroke-width="0.6"/>
  <text x="450" y="258" font-family="Arial, sans-serif" font-size="13" font-weight="bold" fill="#000" text-anchor="middle">7</text>
  <ellipse cx="450" cy="320" rx="65" ry="50" fill="none" stroke="#B5651D" stroke-width="1.6"/>
  <polygon points="450,318 447,324 453,324" fill="#000"/>
  <text x="457" y="327" font-family="Arial, sans-serif" font-size="8" fill="#000">2,140</text>
  <text x="450" y="392" font-family="Arial, sans-serif" font-size="9" fill="#444" text-anchor="middle">_____________</text>
  <rect x="545" y="240" width="160" height="160" fill="#fff" stroke="#888" stroke-width="0.6"/>
  <text x="625" y="258" font-family="Arial, sans-serif" font-size="13" font-weight="bold" fill="#000" text-anchor="middle">8</text>
  <path d="M 555 280 Q 590 290 625 287 Q 660 290 695 280" fill="none" stroke="#B5651D" stroke-width="1"/>
  <path d="M 555 300 Q 590 315 625 310 Q 660 315 695 300" fill="none" stroke="#B5651D" stroke-width="1"/>
  <path d="M 555 320 Q 595 320 625 360 Q 655 320 695 320" fill="none" stroke="#B5651D" stroke-width="1"/>
  <path d="M 555 340 Q 595 340 625 380 Q 655 340 695 340" fill="none" stroke="#B5651D" stroke-width="1"/>
  <polygon points="625,290 622,298 628,298" fill="#000"/>
  <text x="625" y="392" font-family="Arial, sans-serif" font-size="9" fill="#444" text-anchor="middle">_____________</text>
  <rect x="100" y="420" width="160" height="160" fill="#fff" stroke="#d32f2f" stroke-width="1" stroke-dasharray="4,2"/>
  <text x="180" y="438" font-family="Arial, sans-serif" font-size="13" font-weight="bold" fill="#d32f2f" text-anchor="middle">9 (stretch)</text>
  <ellipse cx="135" cy="495" rx="22" ry="18" fill="none" stroke="#B5651D" stroke-width="1"/>
  <ellipse cx="135" cy="495" rx="14" ry="11" fill="none" stroke="#B5651D" stroke-width="1"/>
  <ellipse cx="225" cy="495" rx="22" ry="18" fill="none" stroke="#B5651D" stroke-width="1"/>
  <ellipse cx="225" cy="495" rx="14" ry="11" fill="none" stroke="#B5651D" stroke-width="1"/>
  <polygon points="135,492 132,498 138,498" fill="#000"/>
  <polygon points="225,492 222,498 228,498" fill="#000"/>
  <path d="M 130 540 Q 180 525 230 540" fill="none" stroke="#B5651D" stroke-width="1"/>
  <path d="M 130 555 Q 180 540 230 555" fill="none" stroke="#B5651D" stroke-width="1"/>
  <path d="M 130 450 Q 180 465 230 450" fill="none" stroke="#B5651D" stroke-width="1"/>
  <path d="M 130 465 Q 180 480 230 465" fill="none" stroke="#B5651D" stroke-width="1"/>
  <text x="180" y="572" font-family="Arial, sans-serif" font-size="9" fill="#444" text-anchor="middle">_____________</text>
  <rect x="380" y="420" width="160" height="160" fill="#fff" stroke="#d32f2f" stroke-width="1" stroke-dasharray="4,2"/>
  <text x="460" y="438" font-family="Arial, sans-serif" font-size="13" font-weight="bold" fill="#d32f2f" text-anchor="middle">10 (stretch)</text>
  <line x1="395" y1="465" x2="525" y2="465" stroke="#B5651D" stroke-width="1"/>
  <line x1="395" y1="478" x2="525" y2="478" stroke="#B5651D" stroke-width="1"/>
  <line x1="395" y1="495" x2="525" y2="495" stroke="#B5651D" stroke-width="3.5"/>
  <line x1="397" y1="495" x2="397" y2="503" stroke="#1a1a1a" stroke-width="0.6"/>
  <line x1="407" y1="495" x2="407" y2="503" stroke="#1a1a1a" stroke-width="0.6"/>
  <line x1="417" y1="495" x2="417" y2="503" stroke="#1a1a1a" stroke-width="0.6"/>
  <line x1="427" y1="495" x2="427" y2="503" stroke="#1a1a1a" stroke-width="0.6"/>
  <line x1="437" y1="495" x2="437" y2="503" stroke="#1a1a1a" stroke-width="0.6"/>
  <line x1="447" y1="495" x2="447" y2="503" stroke="#1a1a1a" stroke-width="0.6"/>
  <line x1="457" y1="495" x2="457" y2="503" stroke="#1a1a1a" stroke-width="0.6"/>
  <line x1="467" y1="495" x2="467" y2="503" stroke="#1a1a1a" stroke-width="0.6"/>
  <line x1="477" y1="495" x2="477" y2="503" stroke="#1a1a1a" stroke-width="0.6"/>
  <line x1="487" y1="495" x2="487" y2="503" stroke="#1a1a1a" stroke-width="0.6"/>
  <line x1="497" y1="495" x2="497" y2="503" stroke="#1a1a1a" stroke-width="0.6"/>
  <line x1="507" y1="495" x2="507" y2="503" stroke="#1a1a1a" stroke-width="0.6"/>
  <line x1="517" y1="495" x2="517" y2="503" stroke="#1a1a1a" stroke-width="0.6"/>
  <line x1="395" y1="520" x2="525" y2="520" stroke="#B5651D" stroke-width="1"/>
  <line x1="395" y1="535" x2="525" y2="535" stroke="#B5651D" stroke-width="1"/>
  <line x1="395" y1="550" x2="525" y2="550" stroke="#B5651D" stroke-width="1"/>
  <text x="460" y="572" font-family="Arial, sans-serif" font-size="9" fill="#444" text-anchor="middle">_____________</text>
</svg>
