<svg viewBox="0 0 400 300" xmlns="http://www.w3.org/2000/svg">
  <rect width="400" height="300" fill="#fafaf5"/>
  <path d="M 30 80 Q 200 200 370 80" fill="none" stroke="#B5651D" stroke-width="1.2"/>
  <path d="M 30 110 Q 200 220 370 110" fill="none" stroke="#B5651D" stroke-width="1.2"/>
  <path d="M 30 140 Q 200 240 370 140" fill="none" stroke="#B5651D" stroke-width="1.2"/>
  <path d="M 30 170 Q 200 260 370 170" fill="none" stroke="#B5651D" stroke-width="1.2"/>
  <path d="M 200 270 Q 200 220 200 250" fill="none" stroke="#1e88e5" stroke-width="1.5" stroke-dasharray="4,2"/>
  <path d="M 200 250 Q 200 200 200 100" fill="none" stroke="#1e88e5" stroke-width="1.5"/>
  <text x="20" y="80" font-family="Arial, sans-serif" font-size="10" fill="#000">2,180</text>
  <text x="20" y="110" font-family="Arial, sans-serif" font-size="10" fill="#000">2,160</text>
  <text x="20" y="140" font-family="Arial, sans-serif" font-size="10" fill="#000">2,140</text>
  <text x="20" y="170" font-family="Arial, sans-serif" font-size="10" fill="#000">2,120</text>
  <text x="180" y="285" font-family="Arial, sans-serif" font-size="10" fill="#1e88e5">stream</text>
  <path d="M 200 30 L 200 50 M 195 45 L 200 50 L 205 45" fill="none" stroke="#444" stroke-width="1"/>
  <text x="208" y="42" font-family="Arial, sans-serif" font-size="10" fill="#444">uphill (point of V)</text>
</svg>