<svg viewBox="0 0 400 300" xmlns="http://www.w3.org/2000/svg">
  <rect width="400" height="300" fill="#fafaf5"/>
  <path d="M 30 220 Q 100 110 170 110 Q 240 110 310 200 Q 370 220 380 220" fill="none" stroke="#B5651D" stroke-width="1.2"/>
  <path d="M 30 240 Q 105 135 170 135 Q 240 135 310 220 Q 370 240 380 240" fill="none" stroke="#B5651D" stroke-width="1.2"/>
  <path d="M 30 80 Q 100 90 170 85 Q 240 80 310 75 Q 370 70 380 70" fill="none" stroke="#B5651D" stroke-width="1.2"/>
  <path d="M 30 60 Q 100 70 170 65 Q 240 60 310 55 Q 370 50 380 50" fill="none" stroke="#B5651D" stroke-width="1.2"/>
  <polygon points="100,118 96,126 104,126" fill="#000"/>
  <text x="60" y="115" font-family="Arial, sans-serif" font-size="10" fill="#000">2,720</text>
  <polygon points="200,108 196,116 204,116" fill="#000"/>
  <text x="183" y="103" font-family="Arial, sans-serif" font-size="10" fill="#000">2,750</text>
  <polygon points="290,170 286,178 294,178" fill="#000"/>
  <text x="298" y="175" font-family="Arial, sans-serif" font-size="10" fill="#000">2,640</text>
  <path d="M 200 200 L 200 220 M 195 215 L 200 220 L 205 215" fill="none" stroke="#444" stroke-width="1"/>
  <text x="208" y="217" font-family="Arial, sans-serif" font-size="10" fill="#444">downhill (point of V)</text>
  <text x="20" y="285" font-family="Arial, sans-serif" font-size="10" fill="#444">Ridge: continuous crest with paired V-down bends and multiple spot heights.</text>
</svg>